<?xml version="1.0" encoding="utf-8"?>
<!-- Generator: Adobe Illustrator 20.0.0, SVG Export Plug-In . SVG Version: 6.00 Build 0)  -->
<svg version="1.1" id="Layer_1" xmlns="http://www.w3.org/2000/svg" xmlns:xlink="http://www.w3.org/1999/xlink" x="0px" y="0px"
	 viewBox="0 0 300 300" style="enable-background:new 0 0 300 300;" xml:space="preserve">
<style type="text/css">
	.st0{fill:#B4B4B4;}
	.st1{fill:#117F6A;}
	.st2{fill:#25B99A;}
	.st3{fill:#F3F3F3;}
</style>
<g>
	<polygon class="st0" points="149.6,33.5 40,72.1 57.3,215.7 149.8,266.5 242.7,215 260,71.4 	"/>
	<polygon class="st1" points="249.1,79.7 149.4,45.7 149.4,254.4 232.9,208.2 	"/>
	<polygon class="st2" points="52.3,80.3 67.2,208.8 149.4,254.4 149.4,45.7 	"/>
	<path class="st3" d="M176.8,156.8l-27.4,12.8h-28.9l-13.6,34l-25.3,0.5l67.8-150.8L176.8,156.8z M174.2,150.3l-24.6-48.7
		l-20.2,47.9h20L174.2,150.3z"/>
	<polygon class="st0" points="149.4,53.3 149.6,101.6 172.5,149.5 149.4,149.5 149.4,169.6 181.2,169.6 196.1,204.1 220.3,204.5 	
		"/>
</g>
</svg>
