<?xml version="1.0" encoding="utf-8"?>
<!-- Generator: Adobe Illustrator 19.2.1, SVG Export Plug-In . SVG Version: 6.00 Build 0)  -->
<svg version="1.1" id="Layer_1" xmlns="http://www.w3.org/2000/svg" xmlns:xlink="http://www.w3.org/1999/xlink" x="0px" y="0px"
	 viewBox="0 0 300 300" style="enable-background:new 0 0 300 300;" xml:space="preserve">
<style type="text/css">
	.st0{clip-path:url(#SVGID_3_);fill-rule:evenodd;clip-rule:evenodd;fill:url(#SVGID_4_);}
	.st1{clip-path:url(#SVGID_3_);fill:#FFFFFF;stroke:#FFFFFF;stroke-width:0.5669;stroke-miterlimit:2.4142;}
	.st2{clip-path:url(#SVGID_3_);fill:#FFFFFF;stroke:#FFFFFF;stroke-width:0.7087;stroke-miterlimit:2.4142;}
	
		.st3{clip-path:url(#SVGID_3_);fill-rule:evenodd;clip-rule:evenodd;fill:#FFFFFF;stroke:#FFFFFF;stroke-width:0.7087;stroke-miterlimit:2.4142;}
	
		.st4{clip-path:url(#SVGID_3_);fill-rule:evenodd;clip-rule:evenodd;fill:#FFFFFF;stroke:#FFFFFF;stroke-width:0.5669;stroke-miterlimit:2.4142;}
	.st5{clip-path:url(#SVGID_3_);}
	.st6{fill:#FFFFFF;stroke:#FFFFFF;stroke-width:0.7087;stroke-miterlimit:2.4142;}
	.st7{fill-rule:evenodd;clip-rule:evenodd;fill:#FFFFFF;stroke:#FFFFFF;stroke-width:0.7087;stroke-miterlimit:2.4142;}
	.st8{fill-rule:evenodd;clip-rule:evenodd;fill:#FFFFFF;stroke:#FFFFFF;stroke-width:0.5669;stroke-miterlimit:2.4142;}
</style>
<g>
	<defs>
		<rect id="SVGID_1_" x="3" y="77.2" width="294" height="141.7"/>
	</defs>
	
		<linearGradient id="SVGID_2_" gradientUnits="userSpaceOnUse" x1="-42.9009" y1="364.2053" x2="-43.981" y2="302.3256" gradientTransform="matrix(2.3769 0 0 2.3717 253.2539 -642.3852)">
		<stop  offset="1.000000e-002" style="stop-color:#2F358F"/>
		<stop  offset="0.99" style="stop-color:#2BABE2"/>
	</linearGradient>
	<use xlink:href="#SVGID_1_"  style="overflow:visible;fill-rule:evenodd;clip-rule:evenodd;fill:url(#SVGID_2_);"/>
	<clipPath id="SVGID_3_">
		<use xlink:href="#SVGID_1_"  style="overflow:visible;"/>
	</clipPath>
	
		<linearGradient id="SVGID_4_" gradientUnits="userSpaceOnUse" x1="-42.9009" y1="364.2045" x2="-43.981" y2="302.3248" gradientTransform="matrix(2.3769 0 0 2.3717 253.2539 -642.3787)">
		<stop  offset="9.999895e-003" style="stop-color:#15806B"/>
		<stop  offset="0.99" style="stop-color:#29B99A"/>
	</linearGradient>
	<rect x="3" y="77.2" class="st0" width="294" height="141.7"/>
	<path class="st1" d="M23.4,118.9V97.2h4l4.8,15.4c0.4,1.4,0.8,2.5,1,3.2c0.2-0.8,0.6-2,1.1-3.5l4.8-15.1h3.6v21.7h-2.6v-18.2
		l-5.9,18.2h-2.4L26,100.4v18.5H23.4L23.4,118.9z M47.3,100.2v-3.1h2.5v3.1H47.3L47.3,100.2z M47.3,118.9v-15.7h2.5v15.7H47.3
		L47.3,118.9z M63.7,113.1l2.4,0.3c-0.3,1.8-0.9,3.2-2,4.2c-1.1,1-2.5,1.5-4.1,1.5c-2,0-3.6-0.7-4.8-2.1c-1.2-1.4-1.8-3.4-1.8-6.1
		c0-1.7,0.3-3.2,0.8-4.5c0.5-1.3,1.3-2.2,2.4-2.9c1.1-0.6,2.2-1,3.5-1c1.6,0,2.9,0.4,3.9,1.3c1,0.9,1.7,2.1,2,3.7l-2.4,0.4
		c-0.2-1.1-0.6-1.9-1.2-2.4c-0.6-0.5-1.3-0.8-2.1-0.8c-1.3,0-2.3,0.5-3.1,1.4c-0.8,1-1.2,2.5-1.2,4.6c0,2.1,0.4,3.7,1.1,4.6
		c0.8,1,1.7,1.4,3,1.4c1,0,1.8-0.3,2.4-1C63.1,115.4,63.6,114.5,63.7,113.1L63.7,113.1z M68.8,118.9v-15.7h2.2v2.4
		c0.6-1.1,1.1-1.9,1.6-2.2c0.5-0.4,1-0.5,1.6-0.5c0.8,0,1.7,0.3,2.6,0.9l-0.9,2.5c-0.6-0.4-1.2-0.6-1.8-0.6c-0.5,0-1,0.2-1.5,0.5
		c-0.4,0.4-0.7,0.8-0.9,1.5c-0.3,0.9-0.4,2-0.4,3.1v8.2H68.8L68.8,118.9z M77.9,111c0-2.9,0.8-5.1,2.3-6.5c1.3-1.2,2.8-1.7,4.6-1.7
		c2,0,3.7,0.7,4.9,2.1c1.3,1.4,1.9,3.4,1.9,5.9c0,2-0.3,3.6-0.8,4.8c-0.6,1.2-1.4,2.1-2.5,2.7c-1.1,0.6-2.3,1-3.5,1
		c-2.1,0-3.7-0.7-5-2.1C78.5,115.7,77.9,113.7,77.9,111L77.9,111z M80.5,111c0,2,0.4,3.5,1.2,4.5c0.8,1,1.9,1.5,3.1,1.5
		c1.2,0,2.3-0.5,3.1-1.5c0.8-1,1.2-2.5,1.2-4.6c0-1.9-0.4-3.4-1.2-4.4S86,105,84.8,105c-1.2,0-2.3,0.5-3.1,1.5
		C80.9,107.5,80.5,109,80.5,111L80.5,111z M94.1,114.2l2.5-0.4c0.1,1.1,0.5,1.9,1.2,2.4c0.6,0.6,1.5,0.8,2.6,0.8
		c1.1,0,2-0.3,2.5-0.7c0.6-0.5,0.8-1.1,0.8-1.8c0-0.6-0.2-1.1-0.7-1.4c-0.3-0.2-1.2-0.5-2.5-0.9c-1.8-0.5-3.1-0.9-3.8-1.3
		c-0.7-0.4-1.2-0.9-1.6-1.5c-0.4-0.6-0.5-1.3-0.5-2.1c0-0.7,0.2-1.4,0.5-1.9c0.3-0.6,0.7-1.1,1.2-1.5c0.4-0.3,0.9-0.6,1.6-0.8
		c0.7-0.2,1.4-0.3,2.1-0.3c1.2,0,2.2,0.2,3,0.5c0.9,0.4,1.5,0.8,1.9,1.4c0.4,0.6,0.7,1.4,0.9,2.4l-2.4,0.4c-0.1-0.8-0.4-1.4-1-1.9
		c-0.5-0.5-1.3-0.7-2.2-0.7c-1.1,0-2,0.2-2.4,0.6c-0.5,0.4-0.7,0.9-0.7,1.4c0,0.3,0.1,0.7,0.3,0.9c0.2,0.3,0.5,0.5,1,0.7
		c0.2,0.1,1,0.3,2.2,0.7c1.8,0.5,3,0.9,3.7,1.2c0.7,0.3,1.2,0.8,1.6,1.4c0.4,0.6,0.6,1.4,0.6,2.3c0,0.9-0.2,1.7-0.7,2.5
		c-0.5,0.8-1.2,1.4-2.1,1.8c-0.9,0.4-1.9,0.6-3.1,0.6c-1.9,0-3.4-0.4-4.4-1.3C95,117.1,94.4,115.9,94.1,114.2L94.1,114.2z
		 M108.9,111c0-2.9,0.8-5.1,2.3-6.5c1.3-1.2,2.8-1.7,4.6-1.7c2,0,3.7,0.7,4.9,2.1c1.3,1.4,1.9,3.4,1.9,5.9c0,2-0.3,3.6-0.8,4.8
		c-0.6,1.2-1.4,2.1-2.5,2.7c-1.1,0.6-2.3,1-3.5,1c-2.1,0-3.7-0.7-5-2.1C109.5,115.7,108.9,113.7,108.9,111L108.9,111z M111.4,111
		c0,2,0.4,3.5,1.2,4.5c0.8,1,1.9,1.5,3.1,1.5c1.2,0,2.3-0.5,3.1-1.5c0.8-1,1.2-2.5,1.2-4.6c0-1.9-0.4-3.4-1.2-4.4s-1.8-1.5-3.1-1.5
		c-1.2,0-2.3,0.5-3.1,1.5C111.8,107.5,111.4,109,111.4,111L111.4,111z M126.7,118.9v-13.7h-2.2v-2.1h2.2v-1.7c0-1.1,0.1-1.8,0.3-2.4
		c0.2-0.7,0.7-1.3,1.3-1.7c0.6-0.4,1.4-0.6,2.5-0.6c0.7,0,1.5,0.1,2.3,0.3l-0.4,2.3c-0.5-0.1-1-0.2-1.5-0.2c-0.8,0-1.3,0.2-1.6,0.5
		c-0.3,0.3-0.5,1-0.5,1.9v1.5h2.9v2.1h-2.9v13.7H126.7L126.7,118.9z M139.9,116.5l0.4,2.4c-0.7,0.2-1.3,0.2-1.9,0.2
		c-0.9,0-1.6-0.2-2.1-0.5c-0.5-0.3-0.8-0.7-1-1.2c-0.2-0.5-0.3-1.5-0.3-3.1v-9.1h-1.8v-2.1h1.8v-3.9l2.5-1.6v5.5h2.5v2.1h-2.5v9.2
		c0,0.8,0,1.2,0.1,1.5c0.1,0.2,0.2,0.4,0.4,0.5c0.2,0.1,0.5,0.2,0.8,0.2C139.1,116.6,139.5,116.6,139.9,116.5L139.9,116.5z"/>
	<path class="st2" d="M56.7,176.1H38.5l-2.5,9.4H19.7l19.4-57.1h17.4l19.4,57.1H59.2L56.7,176.1L56.7,176.1z M53.4,163.7l-5.7-20.5
		L42,163.7H53.4L53.4,163.7z M69.4,166.6l15.2-1.1c0.3,2.7,1,4.8,2,6.2c1.6,2.3,4,3.5,7,3.5c2.3,0,4-0.6,5.3-1.8
		c1.2-1.2,1.8-2.6,1.8-4.1c0-1.5-0.6-2.8-1.8-4c-1.2-1.2-3.9-2.3-8.2-3.3c-7-1.7-12-4-15-6.9c-3-2.9-4.5-6.6-4.5-11
		c0-2.9,0.8-5.7,2.3-8.3c1.5-2.6,3.8-4.7,6.9-6.2c3.1-1.5,7.3-2.2,12.7-2.2c6.6,0,11.6,1.4,15.1,4.1c3.5,2.7,5.5,7,6.2,13l-15,1
		c-0.4-2.6-1.2-4.4-2.5-5.6c-1.3-1.2-3-1.7-5.3-1.7c-1.9,0-3.3,0.4-4.2,1.3c-0.9,0.9-1.4,1.9-1.4,3.2c0,0.9,0.4,1.7,1.2,2.4
		c0.8,0.8,2.5,1.4,5.4,2.1c7,1.7,12,3.4,15,5.1c3,1.7,5.2,3.8,6.6,6.3c1.4,2.5,2.1,5.3,2.1,8.5c0,3.7-0.9,7-2.8,10.1
		c-1.8,3.1-4.4,5.4-7.7,7c-3.3,1.6-7.4,2.4-12.4,2.4c-8.8,0-14.9-1.9-18.2-5.6C71.8,177.1,69.9,172.4,69.4,166.6L69.4,166.6z
		 M115.4,128.4H142c5.8,0,10.1,1.5,13,4.6c2.9,3,4.3,7.4,4.3,13c0,5.8-1.6,10.3-4.7,13.5c-3.1,3.2-7.9,4.9-14.4,4.9h-8.7v21.2h-16
		V128.4L115.4,128.4z M131.5,152.7h3.9c3.1,0,5.2-0.6,6.5-1.8c1.2-1.2,1.9-2.7,1.9-4.5c0-1.8-0.5-3.3-1.6-4.6
		c-1.1-1.3-3.1-1.9-6.1-1.9h-4.5V152.7L131.5,152.7z"/>
	<path class="st2" d="M165.6,184.8v-48.6h6.5v6.9c3.1-5.3,7.7-8,13.6-8c2.6,0,4.9,0.5,7.1,1.6c2.2,1.1,3.8,2.4,4.8,4.2
		c1.1,1.7,1.8,3.7,2.3,6.1c0.3,1.5,0.4,4.2,0.4,8v29.9h-7.2v-29.6c0-3.3-0.3-5.9-0.8-7.5c-0.6-1.7-1.6-3-3-4c-1.4-1-3.1-1.5-5-1.5
		c-3.1,0-5.7,1.1-8,3.3c-2.2,2.2-3.3,6.5-3.3,12.7v26.6H165.6L165.6,184.8z M240.5,169.1l7.5,1c-1.2,5-3.4,8.8-6.5,11.6
		c-3.2,2.7-7.3,4.1-12.2,4.1c-6.2,0-11.2-2.2-14.8-6.6c-3.7-4.4-5.5-10.5-5.5-18.4c0-8.2,1.8-14.5,5.5-19.1
		c3.7-4.5,8.5-6.8,14.4-6.8c5.7,0,10.4,2.2,14,6.6c3.6,4.4,5.4,10.7,5.4,18.7c0,0.5,0,1.2,0,2.2h-31.8c0.3,5.3,1.6,9.4,4,12.3
		c2.4,2.8,5.3,4.3,8.9,4.3c2.6,0,4.9-0.8,6.8-2.4C238,175.2,239.4,172.6,240.5,169.1L240.5,169.1z M216.8,155.8h23.8
		c-0.3-4.1-1.2-7.2-2.7-9.2c-2.3-3.2-5.3-4.8-8.9-4.8c-3.3,0-6.1,1.3-8.4,3.8C218.3,148.2,217.1,151.6,216.8,155.8L216.8,155.8z
		 M272.9,177.4l1,7.3c-2,0.5-3.8,0.7-5.5,0.7c-2.6,0-4.7-0.5-6.1-1.4c-1.4-0.9-2.5-2.2-3-3.7c-0.6-1.5-0.9-4.8-0.9-9.7v-28h-23v-6.4
		h23v-12.1l7.2-4.9v17h7.3v6.4h-7.3V171c0,2.4,0.1,3.9,0.4,4.5c0.3,0.7,0.7,1.2,1.2,1.6c0.6,0.4,1.4,0.6,2.5,0.6
		C270.5,177.8,271.5,177.6,272.9,177.4L272.9,177.4z"/>
	<path class="st3" d="M154.9,172.3c3.2,0,5.8,2.6,5.8,5.8c0,3.2-2.6,5.8-5.8,5.8c-3.2,0-5.8-2.6-5.8-5.8
		C149.1,174.9,151.7,172.3,154.9,172.3L154.9,172.3z"/>
	<polygon class="st4" points="279.5,136.1 282.4,136.1 282.4,139 279.5,139 279.5,136.1 	"/>
	<g class="st5">
		<path class="st6" d="M56.7,200H38.5l-2.5-9.4H19.7l19.4,57.1h17.4l19.4-57.1H59.2L56.7,200L56.7,200z M53.4,212.4l-5.7,20.5
			L42,212.4H53.4L53.4,212.4z M69.4,209.5l15.2,1.1c0.3-2.7,1-4.8,2-6.2c1.6-2.3,4-3.5,7-3.5c2.3,0,4,0.6,5.3,1.8
			c1.2,1.2,1.8,2.6,1.8,4.1c0,1.5-0.6,2.8-1.8,4c-1.2,1.2-3.9,2.3-8.2,3.3c-7,1.7-12,4-15,6.9c-3,2.9-4.5,6.6-4.5,11
			c0,2.9,0.8,5.7,2.3,8.3c1.5,2.6,3.8,4.7,6.9,6.2c3.1,1.5,7.3,2.2,12.7,2.2c6.6,0,11.6-1.4,15.1-4.1c3.5-2.7,5.5-7,6.2-13l-15-1
			c-0.4,2.6-1.2,4.4-2.5,5.6c-1.3,1.2-3,1.7-5.3,1.7c-1.9,0-3.3-0.4-4.2-1.3c-0.9-0.9-1.4-1.9-1.4-3.2c0-0.9,0.4-1.7,1.2-2.4
			c0.8-0.8,2.5-1.4,5.4-2.1c7-1.7,12-3.4,15-5.1s5.2-3.8,6.6-6.3c1.4-2.5,2.1-5.3,2.1-8.5c0-3.7-0.9-7-2.8-10.1
			c-1.8-3.1-4.4-5.4-7.7-7c-3.3-1.6-7.4-2.4-12.4-2.4c-8.8,0-14.9,1.9-18.2,5.6C71.8,199,69.9,203.7,69.4,209.5L69.4,209.5z
			 M115.4,247.7H142c5.8,0,10.1-1.5,13-4.6c2.9-3,4.3-7.4,4.3-13c0-5.8-1.6-10.3-4.7-13.5c-3.1-3.2-7.9-4.9-14.4-4.9h-8.7v-21.2h-16
			V247.7L115.4,247.7z M131.5,223.4h3.9c3.1,0,5.2,0.6,6.5,1.8c1.2,1.2,1.9,2.7,1.9,4.5c0,1.8-0.5,3.3-1.6,4.6
			c-1.1,1.3-3.1,1.9-6.1,1.9h-4.5V223.4L131.5,223.4z"/>
		<path class="st6" d="M165.6,191.3v48.6h6.5V233c3.1,5.3,7.7,8,13.6,8c2.6,0,4.9-0.5,7.1-1.6c2.2-1.1,3.8-2.4,4.8-4.2
			c1.1-1.7,1.8-3.7,2.3-6.1c0.3-1.5,0.4-4.2,0.4-8v-29.9h-7.2v29.6c0,3.3-0.3,5.9-0.8,7.5c-0.6,1.7-1.6,3-3,4c-1.4,1-3.1,1.5-5,1.5
			c-3.1,0-5.7-1.1-8-3.3c-2.2-2.2-3.3-6.5-3.3-12.7v-26.6H165.6L165.6,191.3z M240.5,207l7.5-1c-1.2-5-3.4-8.8-6.5-11.6
			c-3.2-2.7-7.3-4.1-12.2-4.1c-6.2,0-11.2,2.2-14.8,6.6c-3.7,4.4-5.5,10.5-5.5,18.4c0,8.2,1.8,14.5,5.5,19.1
			c3.7,4.5,8.5,6.8,14.4,6.8c5.7,0,10.4-2.2,14-6.6c3.6-4.4,5.4-10.7,5.4-18.7c0-0.5,0-1.2,0-2.2h-31.8c0.3-5.3,1.6-9.4,4-12.3
			c2.4-2.8,5.3-4.3,8.9-4.3c2.6,0,4.9,0.8,6.8,2.4C238,200.9,239.4,203.5,240.5,207L240.5,207z M216.8,220.3h23.8
			c-0.3,4.1-1.2,7.2-2.7,9.2c-2.3,3.2-5.3,4.8-8.9,4.8c-3.3,0-6.1-1.3-8.4-3.8C218.3,227.9,217.1,224.5,216.8,220.3L216.8,220.3z
			 M272.9,198.7l1-7.3c-2-0.5-3.8-0.7-5.5-0.7c-2.6,0-4.7,0.5-6.1,1.4c-1.4,0.9-2.5,2.2-3,3.7c-0.6,1.5-0.9,4.8-0.9,9.7v28h-23v6.4
			h23V252l7.2,4.9v-17h7.3v-6.4h-7.3v-28.4c0-2.4,0.1-3.9,0.4-4.5c0.3-0.7,0.7-1.2,1.2-1.6c0.6-0.4,1.4-0.6,2.5-0.6
			C270.5,198.3,271.5,198.5,272.9,198.7L272.9,198.7z"/>
		<path class="st7" d="M154.9,203.8c3.2,0,5.8-2.6,5.8-5.8s-2.6-5.8-5.8-5.8c-3.2,0-5.8,2.6-5.8,5.8S151.7,203.8,154.9,203.8
			L154.9,203.8z"/>
		<polygon class="st8" points="279.5,240 282.4,240 282.4,237.1 279.5,237.1 279.5,240 		"/>
	</g>
	<path class="st1" d="M147.3,108.5c-0.8,0.8-1.7,1.2-2.6,1.2c-0.8,0-1.4-0.2-1.8-0.7c-0.5-0.5-0.7-1-0.7-1.7c0-0.4,0.1-0.7,0.2-0.9
		c0.1-0.3,0.3-0.5,0.5-0.7c0.2-0.2,0.5-0.4,0.8-0.5c0.2-0.1,0.6-0.2,1-0.2l1.5-0.2c0.5-0.1,0.8-0.2,1-0.2c0-0.5-0.1-0.9-0.1-1
		c-0.1-0.2-0.3-0.3-0.5-0.5c-0.2-0.1-0.6-0.2-1-0.2c-0.5,0-1,0.1-1.2,0.4c-0.3,0.2-0.4,0.6-0.5,1l-1.4-0.4c0.1-0.7,0.4-1.2,0.9-1.6
		c0.5-0.4,1.3-0.7,2.2-0.7c1.1,0,1.9,0.2,2.4,0.7c0.5,0.5,0.7,1.1,0.7,2v2.7l0,0.7c0,1,0.1,1.7,0.4,2h-1.5
		C147.4,109.2,147.4,108.9,147.3,108.5L147.3,108.5z M147.2,105.7c-0.4,0.1-1,0.2-2,0.4c-0.6,0.1-1,0.2-1.2,0.4
		c-0.2,0.2-0.3,0.4-0.3,0.7c0,0.3,0.1,0.6,0.4,0.8c0.2,0.2,0.6,0.3,1,0.3c0.5,0,0.9-0.1,1.3-0.4c0.4-0.3,0.6-0.6,0.7-1.1
		C147.2,106.7,147.2,106.3,147.2,105.7L147.2,105.7z"/>
</g>
</svg>
