<?xml version="1.0" encoding="utf-8"?>
<!-- Generator: Adobe Illustrator 19.0.0, SVG Export Plug-In . SVG Version: 6.00 Build 0)  -->
<svg version="1.1" id="Layer_1" xmlns="http://www.w3.org/2000/svg" xmlns:xlink="http://www.w3.org/1999/xlink" x="0px" y="0px"
	 viewBox="0 0 300 300" style="enable-background:new 0 0 300 300;" xml:space="preserve">
<style type="text/css">
	.st0{fill:#26B99A;}
</style>
<path id="path243" class="st0" d="M110.5,128.7c-4.4,0-9.4,1.7-10.4,7.3c-0.1,0.6,0.3,0.9,0.7,1l4.6,0.5c0.4,0,0.7-0.5,0.8-0.9
	c0.4-1.9,2-2.9,3.8-2.9c1,0,2,0.3,2.6,1.2c0.7,1,0.6,2.3,0.6,3.5v0.7c-2.7,0.3-6.3,0.5-8.8,1.6c-2.9,1.3-5,3.9-5,7.8
	c0,5,3.1,7.5,7,7.5c3.3,0,5.2-0.8,7.7-3.5c0.8,1.3,1.1,1.8,2.7,3.2c0.3,0.2,0.8,0.2,1.1-0.1v0.1c0.9-0.8,2.6-2.4,3.6-3.2
	c0.4-0.3,0.3-0.8,0-1.3c-0.9-1.2-1.8-2.2-1.8-4.4v-7.5c0-3.2,0.3-6.1-2-8.3C115.7,129.3,112.7,128.7,110.5,128.7z M171.7,128.7
	c-4.4,0-9.4,1.7-10.4,7.3c-0.1,0.6,0.3,0.9,0.7,1l4.6,0.5c0.4,0,0.7-0.5,0.8-0.9c0.4-1.9,2-2.9,3.8-2.9c1,0,2,0.3,2.6,1.2
	c0.7,1,0.5,2.3,0.5,3.5v0.7c-2.7,0.3-6.2,0.5-8.7,1.6c-2.9,1.3-5,3.9-5,7.8c0,5,3.1,7.5,7,7.5c3.3,0,5.1-0.8,7.7-3.5
	c0.8,1.3,1.1,1.8,2.7,3.2c0.3,0.2,0.8,0.2,1.1-0.1v0.1c0.9-0.8,2.6-2.4,3.6-3.2c0.4-0.3,0.3-0.8,0-1.3c-0.9-1.2-1.8-2.2-1.8-4.4
	v-7.5c0-3.2,0.2-6.1-2.1-8.3C176.9,129.3,173.9,128.7,171.7,128.7z M137.2,128.9c-2.9,0-5,1.4-6.1,4.6H131v-3.2
	c0-0.4-0.4-0.8-0.9-0.9h-4.4c-0.5,0-0.9,0.4-0.9,0.9v24.6c0,0.4,0.4,0.8,0.9,0.9h4.7c0.5,0,0.9-0.4,0.9-0.9v-13.1
	c0-2.8-0.1-6.7,3.2-6.7c3.3,0,2.9,4,2.9,6.7v13.1c0,0.5,0.4,0.9,0.9,0.9h4.7c0.5,0,0.9-0.4,0.9-0.9v-13.1c0-1.4-0.1-3.4,0.4-4.7
	c0.5-1.2,1.7-2.1,2.8-2.1c1.4,0,2.4,0.5,2.7,2.1c0.2,1,0.1,3.6,0.1,4.6v13.1c0,0.5,0.4,0.9,0.9,0.9h4.7c0.5,0,0.9-0.4,0.9-0.9v-15.5
	c0-2.6,0.3-5.6-1.2-7.7c-1.3-1.9-3.4-2.7-5.4-2.7c-2.7,0-5.3,1.4-6.4,4.6C142,130.4,140.2,128.9,137.2,128.9z M216.7,128.9
	c-6.8,0-10.5,5.9-10.5,13.6c0,7.6,3.7,13.7,10.5,13.7c6.5,0,10.7-6,10.7-13.5C227.4,135,223.7,128.9,216.7,128.9z M243.4,128.9
	c-3.2,0-5.1,1.6-6.4,5H237v-3.8c-0.1-0.4-0.4-0.6-0.9-0.7h-4.3c-0.5,0-0.9,0.3-0.9,0.8v24.6c0,0.5,0.4,0.9,0.9,0.9h4.6
	c0.5,0,0.9-0.4,0.9-0.9v-13.2c0-1.7,0.1-3.2,0.8-4.7c0.5-1.2,1.5-1.9,2.7-1.9c3.2,0,2.9,3.9,2.9,6.6V155c0,0.4,0.4,0.8,0.9,0.8h4.7
	c0.5,0,0.9-0.4,0.9-0.8v-15.5c0-2.4,0-5.7-1.2-7.7C247.6,129.7,245.5,128.9,243.4,128.9L243.4,128.9z M187.3,129.4
	c-0.5,0-0.8,0.4-0.9,0.9v3.5c0,0.5,0.4,0.9,0.9,0.9h8l-9.2,13.5c-0.6,0.9-0.6,1.9-0.6,2.4v3.6c0,0.5,0.6,1.1,1.1,0.8
	c5.2-2.9,11.5-2.6,16.2-0.1c0.6,0.3,1.2-0.3,1.2-0.8v-3.8c0-0.5-0.2-1-0.9-1.3c-2.7-1.5-5.8-2-8.7-1.9l8-11.7c0.7-1,1.1-1.7,1.2-2.2
	v-3c0-0.5-0.4-0.9-0.9-0.9H187.3z M216.7,134c1.5,0,2.6,0.7,3.1,2.4c0.6,2,0.7,4.4,0.7,6.5c0,3.2-0.1,8.4-3.8,8.4
	c-3.7,0-3.6-6.5-3.6-9.5C213.1,138.8,213.3,134,216.7,134z M112.9,143v1c0,1.9,0.1,3.4-0.9,5.1c-0.7,1.4-1.9,2.2-3.2,2.2
	c-1.8,0-2.9-1.5-2.9-3.5C106,143.7,109.6,143,112.9,143z M174.2,143v1c0,1.9,0.1,3.4-0.9,5.1c-0.7,1.4-1.9,2.2-3.2,2.2
	c-1.8,0-2.9-1.5-2.9-3.5C167.2,143.7,170.8,143,174.2,143z"/>
<path id="path257" class="st0" d="M204.5,156.6v3.5h2.4v-3.5H204.5z M135.8,157.2v25.1h2.2V180c0.5,0.9,1,1.6,1.6,2
	c0.6,0.4,1.4,0.7,2.2,0.7c1.6,0,3-0.8,4.2-2.5s1.8-4.1,1.8-7.2c0-2-0.3-3.7-0.8-5.1c-0.5-1.4-1.2-2.5-2.1-3.2
	c-0.9-0.7-1.9-1.1-3-1.1c-0.8,0-1.5,0.2-2.1,0.6c-0.6,0.4-1.1,1.1-1.6,1.9v-9H135.8z M158.3,163.1c-1.6,0-3,0.5-3.9,1.5
	c-0.9,1-1.4,2.2-1.4,3.8c0,0.9,0.2,1.7,0.5,2.4c0.3,0.7,0.8,1.3,1.5,1.7c0.6,0.4,1.9,1,3.7,1.6c1.3,0.4,2,0.8,2.4,1
	c0.5,0.4,0.7,0.9,0.7,1.6c0,0.8-0.3,1.5-0.9,2.1c-0.6,0.5-1.3,0.8-2.4,0.8s-1.9-0.3-2.5-0.9s-1-1.6-1.1-2.9l-2.4,0.5
	c0.5,3.9,2.5,5.8,5.8,5.8c1.8,0,3.2-0.5,4.2-1.6c1-1.1,1.6-2.5,1.6-4.3c0-0.9-0.2-1.7-0.5-2.4c-0.3-0.7-0.8-1.2-1.3-1.6
	c-0.6-0.4-1.9-0.9-3.8-1.6c-1.4-0.5-2.3-0.9-2.6-1.1c-0.5-0.4-0.7-0.9-0.7-1.6c0-0.7,0.2-1.3,0.7-1.7c0.5-0.4,1.3-0.7,2.3-0.7
	c1.8,0,2.8,1,3,3l2.3-0.4c-0.2-1.3-0.4-2.2-0.9-2.9c-0.4-0.7-1-1.2-1.8-1.6C160.2,163.2,159.3,163.1,158.3,163.1z M172.8,163.1
	c-1.9,0-3.5,0.8-4.7,2.4c-1.2,1.6-1.8,4-1.8,7.2c0,3,0.6,5.4,1.8,7c1.2,1.6,2.8,2.4,4.8,2.4c1.6,0,2.9-0.5,3.9-1.5
	c1.1-1,1.8-2.4,2.2-4.4l-2.4-0.4c-0.7,2.5-2,3.7-3.8,3.7c-1.1,0-2.1-0.5-2.9-1.5c-0.8-1-1.2-2.6-1.3-4.6h10.4v-0.9
	c0-3.1-0.6-5.4-1.8-7C176.1,163.9,174.6,163.1,172.8,163.1z M187.2,163.1c-0.6,0-1.1,0.2-1.5,0.6s-1,1.3-1.5,2.6v-2.8H182v18.2h2.4
	v-9.5c0-1.3,0.1-2.6,0.4-3.8c0.2-0.7,0.5-1.2,0.9-1.6c0.4-0.4,0.9-0.5,1.4-0.5c0.6,0,1.1,0.2,1.7,0.7l0.8-2.9
	C188.8,163.4,188,163.1,187.2,163.1z M216.2,163.1c-1.9,0-3.4,0.8-4.6,2.4c-1.2,1.6-1.8,3.9-1.8,7.1c0,3.1,0.6,5.5,1.8,7.1
	c1.2,1.6,2.7,2.4,4.5,2.4c1.5,0,2.8-0.6,3.9-1.7c1.1-1.1,1.7-2.8,2-5l-2.3-0.4c-0.2,1.5-0.6,2.7-1.2,3.4c-0.6,0.7-1.4,1.1-2.3,1.1
	c-1.1,0-2.1-0.5-2.9-1.6c-0.7-1.1-1.1-2.9-1.1-5.3c0-2.4,0.4-4.1,1.2-5.2c0.8-1.1,1.7-1.7,2.9-1.7c0.8,0,1.4,0.3,2,0.9
	c0.6,0.6,0.9,1.6,1.2,2.8l2.3-0.5c-0.3-1.9-0.9-3.4-1.9-4.3C218.8,163.5,217.6,163.1,216.2,163.1z M229.7,163.1
	c-1.9,0-3.5,0.8-4.7,2.4c-1.2,1.6-1.8,4-1.8,7.2c0,3,0.6,5.4,1.8,7c1.2,1.6,2.8,2.4,4.8,2.4c1.6,0,2.9-0.5,3.9-1.5
	c1.1-1,1.8-2.4,2.2-4.4l-2.4-0.4c-0.7,2.5-1.9,3.7-3.7,3.7c-1.1,0-2.1-0.5-2.9-1.5c-0.8-1-1.2-2.6-1.3-4.6h10.4v-0.9
	c0-3.1-0.6-5.4-1.8-7C233,163.9,231.6,163.1,229.7,163.1z M243.8,163.1c-1.7,0-3,0.5-3.9,1.5c-0.9,1-1.4,2.2-1.4,3.8
	c0,0.9,0.1,1.7,0.5,2.4c0.3,0.7,0.8,1.3,1.5,1.7c0.6,0.4,1.9,1,3.7,1.6c1.3,0.4,2.1,0.8,2.4,1c0.5,0.4,0.7,0.9,0.7,1.6
	c0,0.8-0.3,1.5-0.9,2.1c-0.6,0.5-1.3,0.8-2.4,0.8c-1,0-1.9-0.3-2.5-0.9c-0.6-0.6-1-1.6-1.2-2.9l-2.4,0.5c0.5,3.9,2.5,5.8,5.8,5.8
	c1.8,0,3.2-0.5,4.3-1.6c1-1.1,1.6-2.5,1.6-4.3c0-0.9-0.2-1.8-0.5-2.4c-0.3-0.7-0.8-1.2-1.4-1.6c-0.6-0.4-1.8-0.9-3.8-1.6
	c-1.4-0.5-2.3-0.9-2.6-1.1c-0.5-0.4-0.7-0.9-0.7-1.6c0-0.7,0.3-1.3,0.8-1.7c0.5-0.4,1.3-0.7,2.3-0.7c1.8,0,2.8,1,3,3l2.3-0.4
	c-0.2-1.3-0.4-2.2-0.9-2.9c-0.4-0.7-1-1.2-1.8-1.6C245.7,163.2,244.8,163.1,243.8,163.1z M189.6,163.4l5.3,18.2h2.2l5.3-18.2H200
	l-3.1,11.1c-0.4,1.3-0.7,2.5-0.9,3.5c-0.3-1.2-0.5-2.5-0.9-3.7l-3-10.9H189.6z M204.5,163.4v18.2h2.4v-18.2H204.5z M126.6,163.7
	c-1.9,0-3.4,0.8-4.6,2.5c-1.2,1.6-1.9,4-1.9,7.2c0,3,0.6,5.3,1.8,6.9c1.2,1.6,2.8,2.4,4.8,2.4c1.6,0,2.8-0.5,3.9-1.5
	c1.1-1,1.8-2.4,2.2-4.4l-2.4-0.4c-0.7,2.5-1.9,3.7-3.7,3.7c-1.1,0-2.1-0.5-2.9-1.5c-0.8-1-1.2-2.6-1.3-4.6h10.3l0.1-0.9
	c0-3.1-0.6-5.4-1.8-7C129.9,164.5,128.4,163.7,126.6,163.7z M99.9,164.1l4.3,18.2h2.5l2.8-14l0.5,3.1l2.2,10.9h2.4l4.3-18.2h-2.2
	l-2.4,10.5l-0.8,3.5l-0.7-3.5l-2.1-10.5h-2.4l-2.2,10.6l-0.7,3.8l-0.9-3.9l-2.2-10.5H99.9z M251.1,164.3v0.9h2.3v6.1h0.9v-6.1h2.3
	v-0.9H251.1z M257.6,164.3v6.9h0.9v-5.9l2,5.9h0.9l2-5.8v5.8h0.9v-6.9h-1.3l-1.6,4.9c-0.2,0.5-0.3,0.8-0.4,1.1l-0.4-1l-1.6-4.9
	H257.6z M172.7,165.6c1.2,0,2.2,0.6,2.9,1.7c0.5,0.8,0.9,2,1,3.5h-7.8c0.1-1.6,0.5-2.8,1.3-3.8S171.7,165.6,172.7,165.6z
	 M229.7,165.6c1.2,0,2.2,0.6,2.9,1.7c0.5,0.8,0.9,2,1,3.5h-7.8c0.1-1.6,0.5-2.8,1.3-3.8C227.8,166.1,228.6,165.6,229.7,165.6z
	 M126.6,166.2c1.2,0,2.1,0.6,2.9,1.7c0.5,0.8,0.9,2,1,3.5h-7.7c0.1-1.6,0.5-2.9,1.2-3.8C124.7,166.7,125.6,166.2,126.6,166.2z
	 M141.7,166.2c1.1,0,1.9,0.6,2.7,1.7c0.7,1.1,1,2.8,1,5.2c0,2.3-0.3,4.1-1.1,5.2c-0.8,1.2-1.6,1.8-2.6,1.8c-0.7,0-1.4-0.2-1.9-0.7
	c-0.6-0.5-1-1.2-1.3-2.1c-0.3-0.9-0.5-2.4-0.5-4.3c0-2.2,0.4-3.9,1.2-5C139.8,166.8,140.7,166.2,141.7,166.2z"/>
<path id="polygon287" class="st0" d="M65.9,147l-9,3.9l8.4,3.6l9.7-3.6L65.9,147z M52.3,151.8L52,169.3l13.2,5.8V157L52.3,151.8z
	 M79.5,151.8l-12,4.6v17.1l12-4.9V151.8z"/>
<path id="polygon311" class="st0" d="M93.8,97.4l-9.1,3.9l8.4,3.6l9.7-3.6L93.8,97.4z M81.2,102.6v17.5l11.3,3.3l0.4-15.9
	L81.2,102.6z M106.4,103.6l-10.7,4.6v17.2l10.7-4.9V103.6z"/>
<path id="use3387" class="st0" d="M51,122l-9,3.9l8.4,3.6l9.7-3.6L51,122z M37.4,126.9l-0.3,17.5l13.2,5.8v-18.2L37.4,126.9z
	 M64.6,126.9l-12,4.6v17.1l12-4.9V126.9z"/>
<path id="use3389" class="st0" d="M80.1,121.4l-9,3.9l8.4,3.6l9.7-3.6L80.1,121.4z M66.5,126.3l-0.3,17.5l13.2,5.8v-18.2L66.5,126.3
	z M93.8,126.3l-12,4.6v17.1l12-4.9V126.3z"/>
<path id="use3391" class="st0" d="M122.3,97.4l-9,3.9l8.4,3.6l9.7-3.6L122.3,97.4z M108.7,102.3l-0.3,17.5l13.2,5.8v-18.2
	L108.7,102.3z M135.9,102.3l-12,4.6V124l12-4.9V102.3z"/>
</svg>
