<?xml version="1.0" encoding="utf-8"?>
<!-- Generator: Adobe Illustrator 19.0.0, SVG Export Plug-In . SVG Version: 6.00 Build 0)  -->
<svg version="1.1"
	 id="svg2" xmlns:rdf="http://www.w3.org/1999/02/22-rdf-syntax-ns#" xmlns:sodipodi="http://sodipodi.sourceforge.net/DTD/sodipodi-0.dtd" xmlns:cc="http://creativecommons.org/ns#" xmlns:svg="http://www.w3.org/2000/svg" xmlns:inkscape="http://www.inkscape.org/namespaces/inkscape" xmlns:dc="http://purl.org/dc/elements/1.1/" sodipodi:docname="twitter_bootstrap_logo.svg" inkscape:version="0.48.1 r9760"
	 xmlns="http://www.w3.org/2000/svg" xmlns:xlink="http://www.w3.org/1999/xlink" x="0px" y="0px" viewBox="1700 -0.1 300 300"
	 style="enable-background:new 1700 -0.1 300 300;" xml:space="preserve">
<style type="text/css">
	.st0{fill:#1ABC9C;}
	.st1{fill:#FFFFFF;}
</style>
<sodipodi:namedview  pagecolor="#ffffff" inkscape:zoom="0.24896372" id="namedview2996" showgrid="false" fit-margin-left="0" bordercolor="#666666" guidetolerance="10" fit-margin-top="0" inkscape:cx="116.80866" borderopacity="1" gridtolerance="10" objecttolerance="10" inkscape:cy="407.66551" inkscape:window-width="864" inkscape:pageopacity="0" inkscape:current-layer="svg2" fit-margin-bottom="0" fit-margin-right="0" inkscape:window-height="623" inkscape:window-y="0" inkscape:pageshadow="2" inkscape:window-maximized="0" inkscape:window-x="0">
	</sodipodi:namedview>
<g>
	<path class="st0" d="M1748.5-0.8h203.1c26.8,0,48.5,21.7,48.5,48.5V252c0,26.8-21.7,48.5-48.5,48.5h-203.1
		c-26.8,0-48.5-21.7-48.5-48.5V47.7C1700,20.9,1721.7-0.8,1748.5-0.8z"/>
	<path class="st1" d="M1852.3,128.9c7.7,0,13.5-1.7,17.4-5c4-3.3,5.9-8.2,5.9-14.7c0-6.4-2-11.3-5.9-14.6c-4-3.4-9.8-5.1-17.4-5.1
		h-26.9v39.5H1852.3 M1853.9,210.5c9.8,0,17.1-2,22-6.1c5-4.1,7.5-10.2,7.5-18.5c0-8.1-2.4-14.1-7.3-18.1
		c-4.9-4.1-12.3-6.1-22.1-6.1h-28.5v48.9H1853.9 M1899.1,143.4c10.4,3,18.5,8.5,24.2,16.6c5.7,8.1,8.6,18,8.6,29.7
		c0,18-6.1,31.4-18.4,40.2c-12.3,8.8-31,13.2-56.1,13.2h-80.7V56.7h73c26.2,0,45.1,3.9,56.8,11.7c11.8,7.8,17.7,20.4,17.7,37.6
		c0,9.1-2.1,16.8-6.4,23.2C1913.5,135.6,1907.3,140.3,1899.1,143.4"/>
</g>
</svg>
