<?xml version="1.0" encoding="utf-8"?>
<!-- Generator: Adobe Illustrator 19.2.1, SVG Export Plug-In . SVG Version: 6.00 Build 0)  -->
<svg version="1.1" id="Layer_1" xmlns="http://www.w3.org/2000/svg" xmlns:xlink="http://www.w3.org/1999/xlink" x="0px" y="0px"
	 viewBox="0 0 32 32" style="enable-background:new 0 0 32 32;" xml:space="preserve">
<style type="text/css">
	.st0{fill:#26B99A;}
	.st1{fill:#FFFFFF;}
</style>
<path class="st0" d="M26.2,32H5.8C2.6,32,0,29.4,0,26.2V5.8C0,2.6,2.6,0,5.8,0h20.3C29.4,0,32,2.6,32,5.8v20.3
	C32,29.4,29.4,32,26.2,32z"/>
<g>
	<path class="st1" d="M24.6,23c0,0.4-0.1,0.7-0.4,1c-0.3,0.3-0.6,0.4-0.9,0.4c-0.6,0-3.2-1.8-7.8-5.4c-1.3,1.4-2.6,2.8-4,4.2
		c-1,1-1.7,1.5-2.1,1.5c-0.4,0-0.7-0.2-1-0.5C8,24,7.9,23.6,7.9,23.2c0-0.5,0.6-1.2,1.7-2.2c1.9-1.7,3.2-3,4.1-4
		c-2.8-2.7-4.6-5.2-5.5-7.3C7.6,9.4,7.3,9,7.3,8.5c0-0.4,0.1-0.8,0.4-1.1c0.3-0.3,0.6-0.5,1-0.5c0.6,0,1,0.2,1.4,0.6
		c0.3,0.3,0.6,0.9,1,1.8c0.8,1.7,2.2,3.5,4.3,5.5c1.6-1.7,2.8-3.4,3.6-5.1c0.3-0.7,0.6-1.3,0.9-2C20.2,7.3,20.6,7,21.2,7
		c0.4,0,0.8,0.1,1.1,0.4c0.3,0.3,0.4,0.6,0.4,1.1c0,1.7-1.7,4.6-5.1,8.6c0.9,0.8,2.6,2,5,3.7C23.9,21.7,24.6,22.4,24.6,23z"/>
</g>
</svg>
