<?xml version="1.0" encoding="utf-8"?>
<!-- Generator: Adobe Illustrator 19.2.1, SVG Export Plug-In . SVG Version: 6.00 Build 0)  -->
<svg version="1.1" id="Layer_1" xmlns="http://www.w3.org/2000/svg" xmlns:xlink="http://www.w3.org/1999/xlink" x="0px" y="0px"
	 viewBox="0 0 300 700" style="enable-background:new 0 0 300 700;" xml:space="preserve">
<style type="text/css">
	.st0{fill:#26B99A;}
	.st1{fill:none;stroke:#26B99A;stroke-width:5;stroke-miterlimit:10;}
</style>
<rect x="139" y="428.2" transform="matrix(0.9999 -1.574447e-002 1.574447e-002 0.9999 -8.818 2.3441)" class="st0" width="11" height="266"/>
<rect x="148.2" y="405.6" transform="matrix(-0.6005 -0.7997 0.7997 -0.6005 -91.8379 799.1799)" class="st0" width="11" height="33.9"/>
<rect x="159" y="351.1" transform="matrix(0.9999 -1.574447e-002 1.574447e-002 0.9999 -6.0249 2.6375)" class="st0" width="11" height="65.7"/>
<ellipse transform="matrix(0.9999 -1.574447e-002 1.574447e-002 0.9999 -4.2572 3.0726)" class="st1" cx="193" cy="271.9" rx="12.3" ry="12.3"/>
<ellipse transform="matrix(0.9658 -0.2592 0.2592 0.9658 -98.1292 31.4392)" class="st1" cx="70.2" cy="387.9" rx="12.3" ry="12.3"/>
<rect x="170.4" y="557.6" transform="matrix(0.9999 -1.251785e-002 1.251785e-002 0.9999 -7.8209 2.2515)" class="st0" width="11" height="136.6"/>
<rect x="221" y="431" transform="matrix(0.598 0.8015 -0.8015 0.598 469.7464 8.4306)" class="st0" width="11" height="83"/>
<ellipse transform="matrix(0.8015 -0.598 0.598 0.8015 -210.4464 248.1173)" class="st1" cx="268.5" cy="441.1" rx="12.3" ry="12.3"/>
<rect x="211.2" y="559.6" transform="matrix(-0.9999 1.574447e-002 -1.574447e-002 -0.9999 443.2619 1252.2583)" class="st0" width="11" height="136.5"/>
<rect x="227.3" y="598.4" transform="matrix(-0.6005 -0.7996 0.7996 -0.6005 -122.0056 1176.2216)" class="st0" width="11" height="40.3"/>
<rect x="81.4" y="575.6" transform="matrix(0.6019 -0.7986 0.7986 0.6019 -448.9629 310.4583)" class="st0" width="11" height="59.7"/>
<rect x="59.7" y="531.9" class="st0" width="11" height="60"/>
<ellipse transform="matrix(1.741696e-002 -0.9998 0.9998 1.741696e-002 -454.2819 577.1558)" class="st1" cx="66.5" cy="519.7" rx="12.3" ry="12.3"/>
<rect x="240.4" y="504" transform="matrix(-0.9999 1.574447e-002 -1.574447e-002 -0.9999 500.557 1111.0831)" class="st0" width="11" height="107"/>
<ellipse transform="matrix(0.9999 -1.574447e-002 1.574447e-002 0.9999 -7.7108 3.9345)" class="st1" cx="246" cy="491.7" rx="12.3" ry="12.3"/>
<ellipse transform="matrix(0.9999 -1.574447e-002 1.574447e-002 0.9999 -8.6216 3.4605)" class="st1" cx="215.5" cy="549.3" rx="12.3" ry="12.3"/>
<rect x="103.6" y="491.6" transform="matrix(0.9999 -1.574447e-002 1.574447e-002 0.9999 -9.3314 1.7908)" class="st0" width="11" height="204"/>
<rect x="64.7" y="398.7" transform="matrix(0.9999 -1.574447e-002 1.574447e-002 0.9999 -6.6822 1.1574)" class="st0" width="11" height="52.5"/>
<rect x="146.4" y="315" transform="matrix(0.7071 -0.7071 0.7071 0.7071 -194.1941 206.5043)" class="st0" width="11.7" height="45.3"/>
<rect x="170.9" y="315.8" transform="matrix(0.6617 0.7497 -0.7497 0.6617 313.5119 -17.9799)" class="st0" width="11.7" height="45.3"/>
<rect x="185.8" y="282.6" class="st0" width="11.7" height="45.3"/>
<ellipse transform="matrix(0.9999 -1.574447e-002 1.574447e-002 0.9999 -4.9349 2.0694)" class="st1" cx="129" cy="314.5" rx="12.3" ry="12.3"/>
<rect x="188.2" y="427.8" transform="matrix(0.9999 -1.251785e-002 1.251785e-002 0.9999 -6.0642 2.4629)" class="st0" width="11" height="115.6"/>
<rect x="212.3" y="378.8" transform="matrix(0.598 0.8015 -0.8015 0.598 418.0479 -8.7729)" class="st0" width="11" height="67.1"/>
<ellipse transform="matrix(0.8015 -0.598 0.598 0.8015 -180.7113 227.8412)" class="st1" cx="252.9" cy="386.1" rx="12.3" ry="12.3"/>
<rect x="179.5" y="534.8" transform="matrix(0.7071 0.7071 -0.7071 0.7071 443.5226 30.4285)" class="st0" width="11" height="31.6"/>
<rect x="83.5" y="440.6" transform="matrix(0.7669 -0.6418 0.6418 0.7669 -281.8109 167)" class="st0" width="11" height="61.7"/>
</svg>
