<?xml version="1.0" encoding="utf-8"?>
<!-- Generator: Adobe Illustrator 19.2.1, SVG Export Plug-In . SVG Version: 6.00 Build 0)  -->
<svg version="1.1" id="Layer_1" xmlns="http://www.w3.org/2000/svg" xmlns:xlink="http://www.w3.org/1999/xlink" x="0px" y="0px"
	 viewBox="0 0 300 440" style="enable-background:new 0 0 300 440;" xml:space="preserve">
<style type="text/css">
	.st0{fill:#26B99A;}
	.st1{fill:none;stroke:#26B99A;stroke-width:5;stroke-miterlimit:10;}
</style>
<rect x="123.5" y="178.6" transform="matrix(0.9999 -1.574409e-002 1.574409e-002 0.9999 -4.8901 2.0694)" class="st0" width="11" height="266"/>
<rect x="121.3" y="167.4" transform="matrix(0.7997 -0.6005 0.6005 0.7997 -76.1367 117.6671)" class="st0" width="33.9" height="11"/>
<rect x="143.5" y="101.5" transform="matrix(0.9999 -1.574409e-002 1.574409e-002 0.9999 -2.097 2.3623)" class="st0" width="11" height="65.7"/>
<ellipse transform="matrix(0.9999 -1.574409e-002 1.574409e-002 0.9999 -0.3293 2.7971)" class="st1" cx="177.5" cy="22.3" rx="12.3" ry="12.3"/>
<ellipse transform="matrix(0.9658 -0.2592 0.2592 0.9658 -33.9738 18.9039)" class="st1" cx="54.7" cy="138.3" rx="12.3" ry="12.3"/>
<rect x="154.9" y="308" transform="matrix(0.9999 -1.251812e-002 1.251812e-002 0.9999 -4.6979 2.0371)" class="st0" width="11" height="136.6"/>
<rect x="169.5" y="217.4" transform="matrix(0.8015 -0.598 0.598 0.8015 -91.4334 170.4104)" class="st0" width="83" height="11"/>
<ellipse transform="matrix(0.8015 -0.598 0.598 0.8015 -64.2918 189.3171)" class="st1" cx="253" cy="191.5" rx="12.3" ry="12.3"/>
<rect x="195.7" y="310" transform="matrix(0.9999 -1.574409e-002 1.574409e-002 0.9999 -5.9308 3.2143)" class="st0" width="11" height="136.5"/>
<rect x="197.1" y="363.5" transform="matrix(0.7996 -0.6005 0.6005 0.7996 -178.074 204.4251)" class="st0" width="40.3" height="11"/>
<rect x="65.8" y="326" transform="matrix(0.6019 -0.7986 0.7986 0.6019 -255.8018 198.6514)" class="st0" width="11" height="59.7"/>
<rect x="44.2" y="282.3" class="st0" width="11" height="60"/>
<ellipse transform="matrix(1.741780e-002 -0.9998 0.9998 1.741780e-002 -220.0151 316.3673)" class="st1" cx="51" cy="270.1" rx="12.3" ry="12.3"/>
<rect x="224.9" y="254.4" transform="matrix(0.9999 -1.574409e-002 1.574409e-002 0.9999 -4.8193 3.6654)" class="st0" width="11" height="107"/>
<ellipse transform="matrix(0.9999 -1.574409e-002 1.574409e-002 0.9999 -3.7833 3.6589)" class="st1" cx="230.5" cy="242.1" rx="12.3" ry="12.3"/>
<ellipse transform="matrix(0.9999 -1.574409e-002 1.574409e-002 0.9999 -4.694 3.1858)" class="st1" cx="200" cy="299.7" rx="12.3" ry="12.3"/>
<rect x="88.1" y="242" transform="matrix(0.9999 -1.574409e-002 1.574409e-002 0.9999 -5.4046 1.5161)" class="st0" width="11" height="204"/>
<rect x="49.2" y="149.1" transform="matrix(0.9999 -1.574409e-002 1.574409e-002 0.9999 -2.7542 0.8827)" class="st0" width="11" height="52.5"/>
<rect x="130.8" y="65.4" transform="matrix(0.7071 -0.7071 0.7071 0.7071 -22.1906 122.4355)" class="st0" width="11.7" height="45.3"/>
<rect x="138.6" y="83" transform="matrix(0.7497 -0.6617 0.6617 0.7497 -18.4727 128.9259)" class="st0" width="45.3" height="11.7"/>
<rect x="170.3" y="33" class="st0" width="11.7" height="45.3"/>
<ellipse transform="matrix(0.9999 -1.574409e-002 1.574409e-002 0.9999 -1.0079 1.7948)" class="st1" cx="113.5" cy="64.9" rx="12.3" ry="12.3"/>
<rect x="172.7" y="178.2" transform="matrix(0.9999 -1.251812e-002 1.251812e-002 0.9999 -2.9402 2.2489)" class="st0" width="11" height="115.6"/>
<rect x="168.7" y="157.3" transform="matrix(0.8015 -0.598 0.598 0.8015 -57.1912 153.2741)" class="st0" width="67.1" height="11"/>
<ellipse transform="matrix(0.8015 -0.598 0.598 0.8015 -34.4923 169.0299)" class="st1" cx="237.4" cy="136.5" rx="12.3" ry="12.3"/>
<rect x="153.7" y="295.5" transform="matrix(0.7071 -0.7071 0.7071 0.7071 -163.1788 208.0011)" class="st0" width="31.6" height="11"/>
<rect x="68" y="191" transform="matrix(0.7669 -0.6418 0.6418 0.7669 -125.238 98.8874)" class="st0" width="11" height="61.7"/>
</svg>
