<?xml version="1.0" encoding="utf-8"?>
<!-- Generator: Adobe Illustrator 19.2.1, SVG Export Plug-In . SVG Version: 6.00 Build 0)  -->
<svg version="1.1" id="Layer_1" xmlns="http://www.w3.org/2000/svg" xmlns:xlink="http://www.w3.org/1999/xlink" x="0px" y="0px"
	 viewBox="0 0 300 700" style="enable-background:new 0 0 300 700;" xml:space="preserve">
<style type="text/css">
	.st0{fill:#26B99A;}
	.st1{fill:none;stroke:#26B99A;stroke-width:5;stroke-miterlimit:10;}
</style>
<rect x="132.5" y="435.5" transform="matrix(0.9999 -1.574409e-002 1.574409e-002 0.9999 -8.9334 2.2432)" class="st0" width="11" height="266"/>
<rect x="130.3" y="424.3" transform="matrix(0.7997 -0.6005 0.6005 0.7997 -228.5796 174.5475)" class="st0" width="33.9" height="11"/>
<rect x="152.5" y="358.4" transform="matrix(0.9999 -1.574409e-002 1.574409e-002 0.9999 -6.1402 2.5361)" class="st0" width="11" height="65.7"/>
<ellipse transform="matrix(0.9999 -1.574409e-002 1.574409e-002 0.9999 -4.3725 2.971)" class="st1" cx="186.5" cy="279.2" rx="12.3" ry="12.3"/>
<ellipse transform="matrix(0.9658 -0.2592 0.2592 0.9658 -100.2514 30.0209)" class="st1" cx="63.7" cy="395.2" rx="12.3" ry="12.3"/>
<rect x="163.9" y="564.9" transform="matrix(0.9999 -1.251812e-002 1.251812e-002 0.9999 -7.9129 2.1701)" class="st0" width="11" height="136.6"/>
<rect x="178.5" y="474.3" transform="matrix(0.8015 -0.598 0.598 0.8015 -243.2595 226.7945)" class="st0" width="83" height="11"/>
<ellipse transform="matrix(0.8015 -0.598 0.598 0.8015 -216.1179 245.7012)" class="st1" cx="262" cy="448.4" rx="12.3" ry="12.3"/>
<rect x="204.7" y="566.9" transform="matrix(0.9999 -1.574409e-002 1.574409e-002 0.9999 -9.9741 3.3881)" class="st0" width="11" height="136.5"/>
<rect x="206.1" y="620.4" transform="matrix(0.7996 -0.6005 0.6005 0.7996 -330.5289 261.3153)" class="st0" width="40.3" height="11"/>
<rect x="74.9" y="582.9" transform="matrix(0.6019 -0.7986 0.7986 0.6019 -457.3547 308.121)" class="st0" width="11" height="59.7"/>
<rect x="53.2" y="539.2" class="st0" width="11" height="60"/>
<ellipse transform="matrix(1.741780e-002 -0.9998 0.9998 1.741780e-002 -468.0001 577.7922)" class="st1" cx="60" cy="527" rx="12.3" ry="12.3"/>
<rect x="233.9" y="511.3" transform="matrix(0.9999 -1.574409e-002 1.574409e-002 0.9999 -8.8626 3.8392)" class="st0" width="11" height="107"/>
<ellipse transform="matrix(0.9999 -1.574409e-002 1.574409e-002 0.9999 -7.8266 3.8327)" class="st1" cx="239.5" cy="499" rx="12.3" ry="12.3"/>
<ellipse transform="matrix(0.9999 -1.574409e-002 1.574409e-002 0.9999 -8.7373 3.3596)" class="st1" cx="209" cy="556.6" rx="12.3" ry="12.3"/>
<rect x="97.1" y="498.9" transform="matrix(0.9999 -1.574409e-002 1.574409e-002 0.9999 -9.4479 1.6899)" class="st0" width="11" height="204"/>
<rect x="58.2" y="406" transform="matrix(0.9999 -1.574409e-002 1.574409e-002 0.9999 -6.7974 1.0565)" class="st0" width="11" height="52.5"/>
<rect x="139.9" y="322.2" transform="matrix(0.7071 -0.7071 0.7071 0.7071 -201.1938 204.0509)" class="st0" width="11.7" height="45.3"/>
<rect x="147.6" y="339.9" transform="matrix(0.7497 -0.6617 0.6617 0.7497 -186.2049 199.1807)" class="st0" width="45.3" height="11.7"/>
<rect x="179.3" y="289.9" class="st0" width="11.7" height="45.3"/>
<ellipse transform="matrix(0.9999 -1.574409e-002 1.574409e-002 0.9999 -5.0512 1.9686)" class="st1" cx="122.5" cy="321.8" rx="12.3" ry="12.3"/>
<rect x="181.7" y="435.1" transform="matrix(0.9999 -1.251812e-002 1.251812e-002 0.9999 -6.1552 2.382)" class="st0" width="11" height="115.6"/>
<rect x="177.7" y="414.2" transform="matrix(0.8015 -0.598 0.598 0.8015 -209.0173 209.6582)" class="st0" width="67.1" height="11"/>
<ellipse transform="matrix(0.8015 -0.598 0.598 0.8015 -186.3184 225.414)" class="st1" cx="246.4" cy="393.4" rx="12.3" ry="12.3"/>
<rect x="162.7" y="552.4" transform="matrix(0.7071 -0.7071 0.7071 0.7071 -342.182 289.6165)" class="st0" width="31.6" height="11"/>
<rect x="77" y="447.9" transform="matrix(0.7669 -0.6418 0.6418 0.7669 -288.0005 164.5582)" class="st0" width="11" height="61.7"/>
</svg>
