<?xml version="1.0" encoding="utf-8"?>
<!-- Generator: Adobe Illustrator 19.2.1, SVG Export Plug-In . SVG Version: 6.00 Build 0)  -->
<svg version="1.1" id="Layer_1" xmlns="http://www.w3.org/2000/svg" xmlns:xlink="http://www.w3.org/1999/xlink" x="0px" y="0px"
	 viewBox="0 0 300 500" style="enable-background:new 0 0 300 500;" xml:space="preserve">
<style type="text/css">
	.st0{fill:#26B99A;}
	.st1{fill:none;stroke:#26B99A;stroke-width:5;stroke-miterlimit:10;}
</style>
<polygon class="st0" points="151.9,344.4 72.7,286.9 72.7,57.6 61.7,57.6 61.7,292.6 61.9,292.6 145.5,353.3 "/>
<rect x="81.7" y="6.5" class="st0" width="11" height="266"/>
<rect x="134.7" y="239.9" transform="matrix(-0.5878 0.809 -0.809 -0.5878 471.8828 375.91)" class="st0" width="11" height="136.5"/>
<rect x="187.6" y="343.8" class="st0" width="11" height="127"/>
<rect x="111.8" y="332.9" transform="matrix(0.809 0.5878 -0.5878 0.809 236.1673 0.4846)" class="st0" width="11" height="61.5"/>
<rect x="94.9" y="385.3" class="st0" width="11" height="45.3"/>
<circle class="st1" cx="101" cy="442.9" r="12.3"/>
<circle class="st1" cx="193.1" cy="481.2" r="12.3"/>
<ellipse transform="matrix(0.244 -0.9698 0.9698 0.244 -226.3511 421.9507)" class="st1" cx="157.4" cy="356.1" rx="12.3" ry="12.3"/>
<rect x="199.5" y="334.5" transform="matrix(-0.5878 0.809 -0.809 -0.5878 612.8477 398.2453)" class="st0" width="11" height="41.4"/>
<rect x="214" y="363" transform="matrix(-1 -1.224647e-016 1.224647e-016 -1 438.9464 802.543)" class="st0" width="11" height="76.5"/>
<circle class="st1" cx="219.5" cy="449.2" r="12.3"/>
<rect x="151.9" y="6.5" transform="matrix(-1 -1.224647e-016 1.224647e-016 -1 314.8994 149.5024)" class="st0" width="11" height="136.5"/>
<rect x="186.2" y="120" transform="matrix(-0.5878 0.809 -0.809 -0.5878 437.938 107.0476)" class="st0" width="11" height="90.3"/>
<rect x="220.4" y="187.2" transform="matrix(-1 -4.497881e-011 4.497881e-011 -1 451.8839 411.0034)" class="st0" width="11" height="36.7"/>
<rect x="188.3" y="176.3" transform="matrix(-0.866 -0.5 0.5 -0.866 261.022 472.0278)" class="st0" width="11" height="49.6"/>
<rect x="106.9" y="131.6" transform="matrix(-0.5878 0.809 -0.809 -0.5878 309.0402 165.5331)" class="st0" width="11" height="59.7"/>
<rect x="128.7" y="174.6" transform="matrix(-1 -1.224647e-016 1.224647e-016 -1 268.4397 409.1959)" class="st0" width="11" height="60"/>
<circle class="st1" cx="134.2" cy="246.9" r="12.3"/>
<rect x="176.6" y="219.8" transform="matrix(-1 -5.556190e-011 5.556190e-011 -1 364.262 484.8784)" class="st0" width="11" height="45.3"/>
<circle class="st1" cx="182.1" cy="275.6" r="12.3"/>
<circle class="st1" cx="225.9" cy="234.6" r="12.3"/>
<rect x="61.8" y="6.5" class="st0" width="11" height="286"/>
</svg>
