<?xml version="1.0" encoding="utf-8"?>
<!-- Generator: Adobe Illustrator 19.2.1, SVG Export Plug-In . SVG Version: 6.00 Build 0)  -->
<svg version="1.1" id="Layer_1" xmlns="http://www.w3.org/2000/svg" xmlns:xlink="http://www.w3.org/1999/xlink" x="0px" y="0px"
	 viewBox="0 0 300 700" style="enable-background:new 0 0 300 700;" xml:space="preserve">
<style type="text/css">
	.st0{fill:#26B99A;}
	.st1{fill:none;stroke:#26B99A;stroke-width:5;stroke-miterlimit:10;}
</style>
<polygon class="st0" points="143.5,344.4 221.9,285.6 218.2,56.3 229.2,56.2 232.9,291.1 232.8,291.1 150.1,353.2 "/>
<rect x="199.5" y="5.4" transform="matrix(-0.9999 1.574447e-002 -1.574447e-002 -0.9999 412.2459 273.6422)" class="st0" width="11" height="266"/>
<rect x="149.2" y="239.7" transform="matrix(0.6005 0.7996 -0.7996 0.6005 308.0308 -0.717)" class="st0" width="11" height="136.5"/>
<rect x="113.3" y="338.8" transform="matrix(-0.9999 1.574447e-002 -1.574447e-002 -0.9999 243.8515 802.6255)" class="st0" width="11" height="127"/>
<ellipse transform="matrix(0.9999 -1.574447e-002 1.574447e-002 0.9999 -8.5825 1.4954)" class="st1" cx="90.7" cy="545.8" rx="12.3" ry="12.3"/>
<ellipse transform="matrix(0.9658 -0.2592 0.2592 0.9658 -100.6112 52.6728)" class="st1" cx="149.5" cy="407.9" rx="12.3" ry="12.3"/>
<rect x="85.2" y="335.3" transform="matrix(0.6005 0.7996 -0.7996 0.6005 320.899 69.7107)" class="st0" width="11" height="41.4"/>
<rect x="71.4" y="364" transform="matrix(0.9999 -1.574447e-002 1.574447e-002 0.9999 -6.324 1.2606)" class="st0" width="11" height="76.5"/>
<ellipse transform="matrix(0.9999 -1.574447e-002 1.574447e-002 0.9999 -7.078 1.2785)" class="st1" cx="77.7" cy="450.2" rx="12.3" ry="12.3"/>
<rect x="172.9" y="6.6" transform="matrix(0.9999 -1.574447e-002 1.574447e-002 0.9999 -1.1558 2.8188)" class="st0" width="11" height="136.5"/>
<rect x="156.8" y="64" transform="matrix(0.6005 0.7996 -0.7996 0.6005 132.0992 -96.1936)" class="st0" width="11" height="40.3"/>
<rect x="244" y="150" transform="matrix(-0.6019 0.7986 -0.7986 -0.6019 543.2618 88.8941)" class="st0" width="11" height="59.7"/>
<rect x="265.1" y="193.3" transform="matrix(-0.9998 -1.741696e-002 1.741696e-002 -0.9998 537.2511 451.3638)" class="st0" width="11" height="60"/>
<ellipse transform="matrix(1.741696e-002 -0.9998 0.9998 1.741696e-002 -0.4717 530.8516)" class="st1" cx="269.9" cy="265.7" rx="12.3" ry="12.3"/>
<rect x="143.7" y="91.7" transform="matrix(0.9999 -1.574447e-002 1.574447e-002 0.9999 -2.2673 2.3678)" class="st0" width="11" height="107"/>
<ellipse transform="matrix(0.9999 -1.574447e-002 1.574447e-002 0.9999 -3.3037 2.374)" class="st1" cx="149.1" cy="211" rx="12.3" ry="12.3"/>
<ellipse transform="matrix(0.9999 -1.574447e-002 1.574447e-002 0.9999 -2.3929 2.8481)" class="st1" cx="179.7" cy="153.4" rx="12.3" ry="12.3"/>
<rect x="219.7" y="5.1" transform="matrix(-0.9999 1.574447e-002 -1.574447e-002 -0.9999 452.6322 292.6932)" class="st0" width="11" height="286"/>
<rect x="144" y="344.5" transform="matrix(-0.9999 1.574447e-002 -1.574447e-002 -0.9999 304.7255 739.1973)" class="st0" width="11" height="52.5"/>
<rect x="125.7" y="457.4" transform="matrix(-0.7071 0.7071 -0.7071 -0.7071 563.9775 726.5337)" class="st0" width="11.7" height="45.3"/>
<rect x="101.2" y="456.6" transform="matrix(-0.6617 -0.7497 0.7497 -0.6617 -181.5025 876.6737)" class="st0" width="11.7" height="45.3"/>
<rect x="86.2" y="489.9" transform="matrix(-1 -4.496637e-011 4.496637e-011 -1 184.0447 1025.0276)" class="st0" width="11.7" height="45.3"/>
<ellipse transform="matrix(0.9999 -1.574447e-002 1.574447e-002 0.9999 -7.9048 2.4986)" class="st1" cx="154.7" cy="503.3" rx="12.3" ry="12.3"/>
<rect x="41.1" y="350.9" transform="matrix(0.6005 0.7996 -0.7996 0.6005 329.7711 118.2291)" class="st0" width="11" height="76.5"/>
<rect x="13.5" y="407.7" transform="matrix(0.9999 -1.574447e-002 1.574447e-002 0.9999 -7.2235 0.3553)" class="st0" width="11" height="102.6"/>
<ellipse transform="matrix(0.9999 -1.574447e-002 1.574447e-002 0.9999 -8.2235 0.3789)" class="st1" cx="20" cy="522.5" rx="12.3" ry="12.3"/>
<rect x="125.9" y="253.9" transform="matrix(-0.2898 0.9571 -0.9571 -0.2898 447.4909 248.8757)" class="st0" width="11" height="73.1"/>
<rect x="75.3" y="268.7" transform="matrix(0.6005 0.7996 -0.7996 0.6005 267.7039 53.015)" class="st0" width="11" height="51.3"/>
<rect x="111.7" y="284.9" transform="matrix(0.6005 0.7996 -0.7996 0.6005 289.1766 27.3605)" class="st0" width="11" height="36.5"/>
<ellipse transform="matrix(0.9999 -1.574447e-002 1.574447e-002 0.9999 -4.966 0.8622)" class="st1" cx="52.3" cy="315.8" rx="12.3" ry="12.3"/>
<ellipse transform="matrix(0.9999 -1.574447e-002 1.574447e-002 0.9999 -5.0547 1.5535)" class="st1" cx="96.1" cy="321.8" rx="12.3" ry="12.3"/>
</svg>
