<?xml version="1.0" encoding="utf-8"?>
<!-- Generator: Adobe Illustrator 19.0.0, SVG Export Plug-In . SVG Version: 6.00 Build 0)  -->
<svg version="1.1" id="Layer_1" xmlns="http://www.w3.org/2000/svg" xmlns:xlink="http://www.w3.org/1999/xlink" x="0px" y="0px"
	 viewBox="0 0 300 300" style="enable-background:new 0 0 300 300;" xml:space="preserve">
<style type="text/css">
	.st0{fill:#127F6A;}
	.st1{fill:#26B99A;}
	.st2{fill:#FFFFFF;}
	.st3{fill:#EBEBEB;}
</style>
<g id="XMLID_1_">
	<title>Slice 1</title>
	<description>Created with Sketch (http://www.bohemiancoding.com/sketch)</description>
	<g id="Page_1_1_">
		<g id="Layer_1_2_">
			<path id="Shape_14_" class="st0" d="M73.9,253.9l-16.9-190h186.1l-17,190L149.9,275L73.9,253.9z"/>
			<path id="Shape_13_" class="st1" d="M150,258.8l61.6-17.1l14.5-162.3H150V258.8z"/>
			<g id="Group_1_" transform="translate(55.000000, 142.000000)">
				<path id="Shape_12_" class="st2" d="M95,6.3h30.8l2.1-23.9H95v-23.3h0.1h58.3l-0.6,6.3l-5.7,64.2H95V6.3z"/>
				<path id="Shape_11_" class="st3" d="M95.1,66.8l-0.1,0l-25.9-7l-1.7-18.6H54.8H44l3.3,36.6L95,91l0.1,0V66.8z"/>
				<path id="Shape_10_" class="st2" d="M123.9,28.6L121,59.8l-26,7V91l47.8-13.2l0.4-3.9l4.1-45.3H123.9z"/>
				<path id="Shape_9_" class="st3" d="M95.1-40.9v14.5v8.8v0.1H38.9h-0.1l-0.5-5.2l-1.1-11.8l-0.6-6.3H95.1z"/>
				<path id="Shape_8_" class="st3" d="M95,6.3v14.5v8.8v0.1H69.5h-0.1l-0.5-5.2l-1.1-11.8l-0.6-6.3H95z"/>
			</g>
		</g>
	</g>
</g>
<g id="XMLID_3_">
	<path id="XMLID_4_" class="st1" d="M118.6,38.1c3.7,0,6.7-1.5,9-4.4l4.8,4.9c-3.8,4.3-8.3,6.4-13.5,6.4c-5.2,0-9.4-1.6-12.8-4.9
		c-3.3-3.3-5-7.4-5-12.4c0-5,1.7-9.1,5.1-12.5c3.4-3.3,7.6-5,12.5-5c5.5,0,10.1,2.1,13.8,6.3l-4.7,5.3c-2.4-2.9-5.3-4.4-8.8-4.4
		c-2.8,0-5.2,0.9-7.2,2.8c-2,1.8-3,4.3-3,7.4c0,3.1,0.9,5.6,2.8,7.5C113.6,37.2,115.9,38.1,118.6,38.1z"/>
	<path id="XMLID_6_" class="st1" d="M146.2,17.9c-0.7,0.6-1.1,1.4-1.1,2.4c0,1,0.4,1.8,1.3,2.3c0.9,0.6,2.9,1.3,6.1,2
		c3.2,0.8,5.7,2,7.4,3.5c1.8,1.6,2.6,3.9,2.6,6.9c0,3-1.1,5.4-3.4,7.3c-2.3,1.9-5.2,2.8-8.9,2.8c-5.3,0-10.1-2-14.4-5.9l4.5-5.5
		c3.6,3.2,7,4.8,10,4.8c1.4,0,2.5-0.3,3.2-0.9c0.8-0.6,1.2-1.4,1.2-2.4c0-1-0.4-1.8-1.2-2.4c-0.8-0.6-2.5-1.2-4.9-1.8
		c-3.9-0.9-6.8-2.1-8.6-3.6c-1.8-1.5-2.7-3.8-2.7-7c0-3.2,1.1-5.6,3.4-7.4s5.1-2.6,8.6-2.6c2.2,0,4.5,0.4,6.7,1.2s4.2,1.9,5.9,3.3
		l-3.8,5.5c-2.9-2.2-5.9-3.3-9-3.3C147.9,17,146.9,17.3,146.2,17.9z"/>
	<path id="XMLID_8_" class="st1" d="M176.8,17.9c-0.7,0.6-1.1,1.4-1.1,2.4c0,1,0.4,1.8,1.3,2.3c0.9,0.6,2.9,1.3,6.1,2
		c3.2,0.8,5.7,2,7.4,3.5c1.8,1.6,2.6,3.9,2.6,6.9c0,3-1.1,5.4-3.4,7.3c-2.3,1.9-5.2,2.8-8.9,2.8c-5.3,0-10.1-2-14.4-5.9l4.5-5.5
		c3.6,3.2,7,4.8,10,4.8c1.4,0,2.5-0.3,3.2-0.9c0.8-0.6,1.2-1.4,1.2-2.4c0-1-0.4-1.8-1.2-2.4c-0.8-0.6-2.5-1.2-4.9-1.8
		c-3.9-0.9-6.8-2.1-8.6-3.6c-1.8-1.5-2.7-3.8-2.7-7c0-3.2,1.1-5.6,3.4-7.4s5.1-2.6,8.6-2.6c2.2,0,4.5,0.4,6.7,1.2s4.2,1.9,5.9,3.3
		l-3.8,5.5c-2.9-2.2-5.9-3.3-9-3.3C178.5,17,177.5,17.3,176.8,17.9z"/>
</g>
</svg>
