<?xml version="1.0" encoding="utf-8"?>
<!-- Generator: Adobe Illustrator 20.0.0, SVG Export Plug-In . SVG Version: 6.00 Build 0)  -->
<svg version="1.1" id="Layer_1" xmlns="http://www.w3.org/2000/svg" xmlns:xlink="http://www.w3.org/1999/xlink" x="0px" y="0px"
	 viewBox="0 0 300 300" style="enable-background:new 0 0 300 300;" xml:space="preserve">
<style type="text/css">
	.st0{fill:#25B99A;}
</style>
<g>
	<path class="st0" d="M225.6,48l-8.7,5l50.5,87.5c1.7,2.9,2.6,6.2,2.6,9.5c0,3.3-0.8,6.6-2.6,9.5L216.9,247
		c-3.4,5.9-9.7,9.5-16.5,9.5H99.6c-6.8,0-13.1-3.6-16.5-9.5l-50.5-87.5c-1.7-2.9-2.6-6.2-2.6-9.5c0-3.3,0.8-6.6,2.6-9.5L83.1,53
		c3.4-5.9,9.7-9.5,16.5-9.5h100.9c6.8,0,13.1,3.6,16.5,9.5L225.6,48l8.7-5c-7-12.1-19.9-19.5-33.8-19.5H99.6
		c-13.9,0-26.8,7.4-33.8,19.5l-50.5,87.5c-3.5,6-5.2,12.8-5.2,19.5c0,6.7,1.7,13.5,5.2,19.5L65.8,257c7,12.1,19.9,19.5,33.8,19.5
		h100.9c13.9,0,26.8-7.4,33.8-19.5l50.5-87.5c3.5-6,5.2-12.8,5.2-19.5c0-6.7-1.7-13.5-5.2-19.5L234.2,43L225.6,48z"/>
	<path class="st0" d="M130.3,119.4c8.1,7.4,12.2,17.6,12.2,30.7c0,13.1-3.9,23.5-11.8,31.1c-7.9,7.6-19.9,11.5-36.2,11.5H73.3
		c-3.7,0-6.7-3-6.7-6.7v-70.8c0-3.7,3-6.7,6.7-6.7h22.2C110.6,108.4,122.2,112.1,130.3,119.4z M128.2,150.5
		c0-19.3-11.1-28.9-33.2-28.9h-7.5c-3.7,0-6.7,3-6.7,6.7v44.3c0,3.7,3,6.7,6.7,6.7h9.1c10.2,0,18-2.4,23.5-7.3
		C125.5,167.1,128.2,160,128.2,150.5z"/>
	<path class="st0" d="M199.3,179.8c4.9,0,9.1-0.8,12.7-2.5c2.1-1,4.3-2.3,6.6-4.1c2.7-2.1,6.5-1.8,8.9,0.6l0.1,0.1
		c2.7,2.8,2.5,7.3-0.5,9.8c-7.8,6.6-17,9.8-27.3,9.8c-12.7,0-23.3-4.1-31.7-12.3c-8.4-8.2-12.6-18.6-12.6-31.1s4.3-23,12.8-31.4
		c8.6-8.4,19.4-12.5,32.4-12.5c10.6,0,19.9,3.2,27.7,9.6c3,2.4,3.2,6.9,0.6,9.7l-0.2,0.2c-2.4,2.6-6.3,2.9-9.1,0.7
		c-2.3-1.8-4.5-3.1-6.7-4c-3.6-1.5-7.8-2.3-12.6-2.3c-8.5,0-15.7,2.8-21.5,8.3c-5.8,5.5-8.7,12.5-8.7,21.1s2.9,15.7,8.6,21.5
		C184.6,176.9,191.4,179.8,199.3,179.8z"/>
</g>
</svg>
