<?xml version="1.0" encoding="utf-8"?>
<!-- Generator: Adobe Illustrator 19.2.1, SVG Export Plug-In . SVG Version: 6.00 Build 0)  -->
<svg version="1.1" id="Layer_1" xmlns="http://www.w3.org/2000/svg" xmlns:xlink="http://www.w3.org/1999/xlink" x="0px" y="0px"
	 viewBox="0 0 32 32" style="enable-background:new 0 0 32 32;" xml:space="preserve">
<style type="text/css">
	.st0{fill:#26B99A;}
	.st1{fill:#FFFFFF;}
</style>
<g id="Layer_2">
	<path class="st0" d="M28.5,32h-25c-2,0-3.5-1.6-3.5-3.5v-25C0,1.6,1.6,0,3.5,0h24.9c2,0,3.5,1.6,3.5,3.5v24.9
		C32,30.4,30.4,32,28.5,32z"/>
</g>
<g id="Layer_1_1_">
	<g>
		<path class="st1" d="M25.5,22.2h2.7C27.4,23.9,26,25.1,24,26c-1.9,0.9-4.2,1.3-7,1.3c-4.4,0-7.7-1-9.9-2.9S3.8,20,3.8,16.8
			c0-2.2,0.6-4.3,1.8-6.1c1.2-1.7,2.7-3,4.6-4c1.9-0.9,4.2-1.3,6.6-1.3c3.3,0,5.9,0.8,7.8,2.4s3,3.7,3,6.3c0,2.2-0.8,4.2-2.4,5.8
			c-1.6,1.7-3.6,2.5-5.9,2.5c-1.3,0-2.1-0.4-2.3-1.3c-1,0.9-2.2,1.3-3.4,1.3c-1.5,0-2.6-0.4-3.6-1.4c-0.9-0.9-1.4-2-1.4-3.4
			c0-1.9,0.6-3.7,1.9-5.2s3-2.4,4.9-2.4c1.5,0,2.6,0.5,3.4,1.6l0.3-1.2h3.4l-1.9,8.2c-0.1,0.5-0.2,0.9-0.2,1c0,0.3,0.2,0.5,0.5,0.5
			c0.4,0,1-0.3,1.7-0.8s1.4-1.2,1.9-2.2c0.6-1,0.8-2,0.8-3c0-1.8-0.7-3.4-2.2-4.7s-3.6-1.9-6.3-1.9c-2.2,0-4.1,0.4-5.7,1.2
			c-1.6,0.8-2.9,2-3.7,3.6c-0.9,1.6-1.3,3.1-1.3,4.9c0,2.4,1,4.4,2.8,5.9s4.5,2.3,7.9,2.3C20.9,25.3,23.8,24.3,25.5,22.2z
			 M11.8,17.5c0,0.9,0.2,1.6,0.6,2.1c0.4,0.5,1,0.8,1.7,0.8c1.2,0,2.2-0.6,2.9-1.8c0.7-1.2,1-2.4,1-3.7c0-0.7-0.2-1.4-0.6-1.9
			c-0.4-0.5-1-0.8-1.8-0.8c-1.2,0-2.1,0.6-2.8,1.7C12.2,15,11.8,16.2,11.8,17.5z"/>
	</g>
</g>
</svg>
