<?xml version="1.0" encoding="utf-8"?>
<!-- Generator: Adobe Illustrator 19.0.0, SVG Export Plug-In . SVG Version: 6.00 Build 0)  -->
<svg version="1.1" id="Layer_1" xmlns="http://www.w3.org/2000/svg" xmlns:xlink="http://www.w3.org/1999/xlink" x="0px" y="0px"
	 viewBox="0 0 300 300" style="enable-background:new 0 0 300 300;" xml:space="preserve">
<style type="text/css">
	.st0{fill:#26B99A;}
	.st1{fill:#127F6A;}
</style>
<g id="XMLID_1_">
	<path id="XMLID_18_" class="st0" d="M216.7,233.9h-1.1v-0.6h3v0.6h-1.1v3.1h-0.8V233.9z M222.6,234.1L222.6,234.1l-1.1,2.9H221
		l-1.1-2.9h0v2.9h-0.7v-3.7h1.1l1,2.6l1-2.6h1.1v3.7h-0.7L222.6,234.1L222.6,234.1z"/>
	<path id="XMLID_17_" class="st1" d="M117.4,157.9c0,0-7.7,4.5,5.5,6c16,1.8,24.2,1.6,41.8-1.8c0,0,4.6,2.9,11.1,5.4
		C136.2,184.5,86.3,166.6,117.4,157.9"/>
	<path id="XMLID_16_" class="st1" d="M112.5,135.8c0,0-8.7,6.4,4.6,7.8c17.1,1.8,30.6,1.9,54-2.6c0,0,3.2,3.3,8.3,5.1
		C131.6,160.1,78.3,147.2,112.5,135.8"/>
	<path id="XMLID_15_" class="st0" d="M153.3,98.3c9.7,11.2-2.6,21.3-2.6,21.3s24.7-12.8,13.4-28.8C153.5,76,145.3,68.5,189.4,43
		C189.4,43,120.2,60.3,153.3,98.3"/>
	<path id="XMLID_14_" class="st1" d="M205.6,174.3c0,0,5.7,4.7-6.3,8.3c-22.8,6.9-95,9-115,0.3c-7.2-3.1,6.3-7.5,10.6-8.4
		c4.4-1,7-0.8,7-0.8c-8-5.6-51.8,11.1-22.2,15.9C160.1,202.7,226.5,183.7,205.6,174.3"/>
	<path id="XMLID_13_" class="st1" d="M121.1,112.9c0,0-36.7,8.7-13,11.9c10,1.3,30,1,48.6-0.5c15.2-1.3,30.4-4,30.4-4
		s-5.4,2.3-9.2,4.9c-37.3,9.8-109.3,5.2-88.6-4.8C106.8,112,121.1,112.9,121.1,112.9"/>
	<path id="XMLID_12_" class="st1" d="M186.9,149.7c37.9-19.7,20.4-38.6,8.1-36.1c-3,0.6-4.3,1.2-4.3,1.2s1.1-1.7,3.2-2.5
		c24.2-8.5,42.8,25.1-7.8,38.4C186.2,150.7,186.7,150.2,186.9,149.7"/>
	<path id="XMLID_11_" class="st0" d="M164.1,1.7c0,0,21,21-19.9,53.3c-32.8,25.9-7.5,40.7,0,57.5C125,95.3,111,80.1,120.4,65.9
		C134.2,45.2,172.5,35.1,164.1,1.7"/>
	<path id="XMLID_10_" class="st1" d="M124.8,203.1c36.4,2.3,92.2-1.3,93.6-18.5c0,0-2.5,6.5-30.1,11.7c-31,5.8-69.3,5.2-92,1.4
		C96.2,197.7,100.9,201.5,124.8,203.1"/>
	<path id="XMLID_7_" class="st0" d="M118.8,268.8c-3.4,3-7.1,4.6-10.3,4.6c-4.6,0-7.1-2.8-7.1-7.2c0-4.8,2.7-8.4,13.5-8.4h4
		L118.8,268.8 M128.3,279.5v-33.1c0-8.4-4.8-14-16.4-14c-6.8,0-12.7,1.7-17.5,3.8l1.4,5.9c3.8-1.4,8.7-2.7,13.6-2.7
		c6.7,0,9.6,2.7,9.6,8.3v4.2h-3.3c-16.3,0-23.6,6.3-23.6,15.8c0,8.2,4.8,12.8,13.9,12.8c5.8,0,10.2-2.4,14.3-5.9l0.7,5L128.3,279.5
		L128.3,279.5z"/>
	<path id="XMLID_6_" class="st0" d="M159.9,279.5h-11.8l-14.2-46.3h10.3l8.8,28.4l2,8.5c4.5-12.4,7.6-24.9,9.2-37h10
		C171.5,248.5,166.7,265.2,159.9,279.5"/>
	<path id="XMLID_3_" class="st0" d="M205.2,268.8c-3.4,3-7.1,4.6-10.3,4.6c-4.6,0-7.1-2.8-7.1-7.2c0-4.8,2.7-8.4,13.5-8.4h4V268.8
		 M214.7,279.5v-33.1c0-8.4-4.8-14-16.4-14c-6.8,0-12.7,1.7-17.6,3.8l1.4,5.9c3.8-1.4,8.7-2.7,13.6-2.7c6.7,0,9.6,2.7,9.6,8.3v4.2
		h-3.3c-16.3,0-23.6,6.3-23.6,15.8c0,8.2,4.8,12.8,13.9,12.8c5.9,0,10.2-2.4,14.3-5.9l0.7,5L214.7,279.5L214.7,279.5z"/>
	<path id="XMLID_2_" class="st0" d="M81.5,287.4c-2.7,3.9-7.1,7.1-11.8,8.8l-4.7-5.5c3.6-1.9,6.7-4.9,8.2-7.7
		c1.3-2.5,1.8-5.7,1.8-13.4v-52.8H85v52.1C85,279.2,84.2,283.3,81.5,287.4"/>
</g>
</svg>
