<?xml version="1.0" encoding="utf-8"?>
<!-- Generator: Adobe Illustrator 19.0.0, SVG Export Plug-In . SVG Version: 6.00 Build 0)  -->
<svg version="1.1" id="Layer_1" xmlns="http://www.w3.org/2000/svg" xmlns:xlink="http://www.w3.org/1999/xlink" x="0px" y="0px"
	 viewBox="0 0 75 75" style="enable-background:new 0 0 75 75;" xml:space="preserve">
<style type="text/css">
	.st0{fill:#26B99A;}
	.st1{fill:#FFFFFF;}
</style>
<g id="XMLID_3_">
	<path id="XMLID_6_" class="st0" d="M3.1,8c0-2.7,2.3-4.9,5.1-4.9h58.7c2.8,0,5.1,2.2,5.1,4.9v59c0,2.7-2.3,4.9-5.1,4.9H8.2
		c-2.8,0-5.1-2.2-5.1-4.9V8z"/>
	<path id="XMLID_9_" class="st1" d="M23.9,60.7V29.6H13.5v31.1H23.9z M18.7,25.4c3.6,0,5.9-2.4,5.9-5.4c-0.1-3.1-2.3-5.4-5.8-5.4
		c-3.6,0-5.9,2.3-5.9,5.4C12.9,23,15.2,25.4,18.7,25.4L18.7,25.4L18.7,25.4z"/>
	<path id="XMLID_10_" class="st1" d="M29.7,60.7h10.4V43.3c0-0.9,0.1-1.9,0.3-2.5c0.8-1.9,2.5-3.8,5.3-3.8c3.8,0,5.3,2.9,5.3,7v16.6
		h10.4V42.9c0-9.5-5.1-14-12-14c-5.6,0-8.1,3.1-9.4,5.2h0.1v-4.5H29.7C29.8,32.5,29.7,60.7,29.7,60.7L29.7,60.7z"/>
</g>
</svg>
