<?xml version="1.0" encoding="utf-8"?>
<!-- Generator: Adobe Illustrator 20.0.0, SVG Export Plug-In . SVG Version: 6.00 Build 0)  -->
<svg version="1.1" xmlns="http://www.w3.org/2000/svg" xmlns:xlink="http://www.w3.org/1999/xlink" x="0px" y="0px"
	 viewBox="0 0 1920 1080" style="enable-background:new 0 0 1920 1080;" xml:space="preserve">
<style type="text/css">
	.st0{fill:none;}
	.st1{fill:url(#SVGID_1_);}
	.st2{fill:url(#SVGID_2_);}
	.st3{fill:url(#SVGID_3_);}
	.st4{fill:url(#SVGID_4_);}
	.st5{fill:url(#SVGID_5_);}
	.st6{fill:url(#SVGID_6_);}
	.st7{fill:url(#SVGID_7_);}
	.st8{fill:url(#SVGID_8_);}
	.st9{fill:url(#SVGID_9_);}
	.st10{fill:url(#SVGID_10_);}
	.st11{fill:url(#SVGID_11_);}
	.st12{fill:url(#SVGID_12_);}
	.st13{fill:url(#SVGID_13_);}
	.st14{fill:url(#SVGID_14_);}
	.st15{fill:url(#SVGID_15_);}
	.st16{fill:url(#SVGID_16_);}
	.st17{fill:url(#SVGID_17_);}
	.st18{fill:url(#SVGID_18_);}
	.st19{fill:url(#SVGID_19_);}
	.st20{fill:url(#SVGID_20_);}
	.st21{fill:url(#SVGID_21_);}
	.st22{fill:url(#SVGID_22_);}
	.st23{fill:url(#SVGID_23_);}
	.st24{fill:url(#SVGID_24_);}
	.st25{fill:url(#SVGID_25_);}
	.st26{fill:url(#SVGID_26_);}
	.st27{fill:url(#SVGID_27_);}
	.st28{fill:url(#SVGID_28_);}
	.st29{fill:url(#SVGID_29_);}
	.st30{fill:url(#SVGID_30_);}
	.st31{fill:url(#SVGID_31_);}
	.st32{fill:url(#SVGID_32_);}
	.st33{fill:url(#SVGID_33_);}
	.st34{fill:url(#SVGID_34_);}
	.st35{fill:url(#SVGID_35_);}
	.st36{fill:url(#SVGID_36_);}
	.st37{fill:url(#SVGID_37_);}
	.st38{fill:url(#SVGID_38_);}
	.st39{fill:url(#SVGID_39_);}
	.st40{fill:url(#SVGID_40_);}
	.st41{fill:url(#SVGID_41_);}
	.st42{fill:url(#SVGID_42_);}
	.st43{fill:url(#SVGID_43_);}
	.st44{fill:url(#SVGID_44_);}
	.st45{fill:url(#SVGID_45_);}
	.st46{fill:url(#SVGID_46_);}
	.st47{fill:url(#SVGID_47_);}
	.st48{fill:url(#SVGID_48_);}
	.st49{fill:url(#SVGID_49_);}
	.st50{fill:url(#SVGID_50_);}
	.st51{fill:url(#SVGID_51_);}
	.st52{fill:url(#SVGID_52_);}
	.st53{fill:url(#SVGID_53_);}
	.st54{fill:url(#SVGID_54_);}
	.st55{fill:url(#SVGID_55_);}
	.st56{fill:url(#SVGID_56_);}
	.st57{fill:url(#SVGID_57_);}
	.st58{fill:url(#SVGID_58_);}
	.st59{fill:url(#SVGID_59_);}
	.st60{fill:url(#SVGID_60_);}
	.st61{fill:url(#SVGID_61_);}
	.st62{fill:url(#SVGID_62_);}
	.st63{fill:url(#SVGID_63_);}
	.st64{fill:url(#SVGID_64_);}
	.st65{fill:url(#SVGID_65_);}
	.st66{fill:url(#SVGID_66_);}
	.st67{fill:url(#SVGID_67_);}
	.st68{fill:url(#SVGID_68_);}
	.st69{fill:url(#SVGID_69_);}
	.st70{fill:url(#SVGID_70_);}
	.st71{fill:url(#SVGID_71_);}
	.st72{fill:url(#SVGID_72_);}
	.st73{fill:url(#SVGID_73_);}
	.st74{fill:url(#SVGID_74_);}
	.st75{fill:url(#SVGID_75_);}
	.st76{fill:url(#SVGID_76_);}
	.st77{fill:url(#SVGID_77_);}
	.st78{fill:url(#SVGID_78_);}
	.st79{fill:url(#SVGID_79_);}
	.st80{fill:url(#SVGID_80_);}
	.st81{fill:url(#SVGID_81_);}
	.st82{fill:url(#SVGID_82_);}
	.st83{fill:url(#SVGID_83_);}
	.st84{fill:url(#SVGID_84_);}
	.st85{fill:url(#SVGID_85_);}
	.st86{fill:url(#SVGID_86_);}
	.st87{fill:url(#SVGID_87_);}
	.st88{fill:url(#SVGID_88_);}
	.st89{fill:url(#SVGID_89_);}
	.st90{fill:url(#SVGID_90_);}
	.st91{fill:url(#SVGID_91_);}
	.st92{fill:url(#SVGID_92_);}
	.st93{fill:url(#SVGID_93_);}
	.st94{fill:url(#SVGID_94_);}
	.st95{fill:url(#SVGID_95_);}
	.st96{fill:url(#SVGID_96_);}
	.st97{fill:url(#SVGID_97_);}
	.st98{fill:url(#SVGID_98_);}
	.st99{fill:url(#SVGID_99_);}
	.st100{fill:url(#SVGID_100_);}
	.st101{fill:url(#SVGID_101_);}
	.st102{fill:url(#SVGID_102_);}
	.st103{fill:url(#SVGID_103_);}
	.st104{fill:url(#SVGID_104_);}
	.st105{fill:url(#SVGID_105_);}
</style>
<g id="Layer_1">
</g>
<g id="Layer_2">
	<g>
		<polygon class="st0" points="461.6,905.8 460.8,906.1 585.5,1080 586.5,1080 		"/>
		
			<linearGradient id="SVGID_1_" gradientUnits="userSpaceOnUse" x1="478.4218" y1="820.9641" x2="479.5103" y2="819.8756" gradientTransform="matrix(317 0 0 -344 -151578 282644)">
			<stop  offset="0" style="stop-color:#1BD7B6"/>
			<stop  offset="1" style="stop-color:#1FE2C3"/>
		</linearGradient>
		<polygon class="st1" points="36.5,281.5 279.7,658.9 377.7,341.8 		"/>
		
			<linearGradient id="SVGID_2_" gradientUnits="userSpaceOnUse" x1="471.834" y1="821.5649" x2="472.9243" y2="820.4745" gradientTransform="matrix(66 0 0 -149 -30912 123088)">
			<stop  offset="0" style="stop-color:#13CAA6"/>
			<stop  offset="1" style="stop-color:#17D4B2"/>
		</linearGradient>
		<polygon class="st2" points="307.7,792.7 279.7,658.9 236.7,822.4 		"/>
		
			<linearGradient id="SVGID_3_" gradientUnits="userSpaceOnUse" x1="476.0168" y1="821.1756" x2="477.1083" y2="820.0841" gradientTransform="matrix(131 0 0 -230 -62072 189400)">
			<stop  offset="0" style="stop-color:#1AD7B7"/>
			<stop  offset="1" style="stop-color:#23E4C7"/>
		</linearGradient>
		<polygon class="st3" points="420.7,540.4 279.7,658.9 307.7,792.7 		"/>
		
			<linearGradient id="SVGID_4_" gradientUnits="userSpaceOnUse" x1="475.875" y1="820.8766" x2="476.9654" y2="819.7863" gradientTransform="matrix(131 0 0 -289 -62072 237599)">
			<stop  offset="0" style="stop-color:#25E8CD"/>
			<stop  offset="1" style="stop-color:#26E8CC"/>
		</linearGradient>
		<polygon class="st4" points="377.7,341.8 279.7,658.9 420.7,540.4 		"/>
		
			<linearGradient id="SVGID_5_" gradientUnits="userSpaceOnUse" x1="478.7502" y1="822.3831" x2="479.8319" y2="821.3013" gradientTransform="matrix(381 0 0 -130 -181312 106863)">
			<stop  offset="0" style="stop-color:#0ED7B1"/>
			<stop  offset="1" style="stop-color:#0ECFA9"/>
		</linearGradient>
		<polygon class="st5" points="1507.8,1.7 1494.2,0 1143,0 1230.1,93.8 		"/>
		
			<linearGradient id="SVGID_6_" gradientUnits="userSpaceOnUse" x1="476.8256" y1="822.2599" x2="477.9155" y2="821.17" gradientTransform="matrix(136 0 0 -108 -63341 89604)">
			<stop  offset="0" style="stop-color:#08C49A"/>
			<stop  offset="1" style="stop-color:#08C097"/>
		</linearGradient>
		<polygon class="st6" points="1575.6,926.6 1643.4,835.5 1497,808.1 		"/>
		
			<linearGradient id="SVGID_7_" gradientUnits="userSpaceOnUse" x1="477.8434" y1="821.3844" x2="478.9286" y2="820.2992" gradientTransform="matrix(208 0 0 -227 -98421 186738)">
			<stop  offset="0" style="stop-color:#0ECAA5"/>
			<stop  offset="1" style="stop-color:#0DCAA4"/>
		</linearGradient>
		<polygon class="st7" points="1116,567.8 1161.2,318.8 937.3,420.8 		"/>
		
			<linearGradient id="SVGID_8_" gradientUnits="userSpaceOnUse" x1="476.9336" y1="820.4198" x2="478.0211" y2="819.3323" gradientTransform="matrix(138 0 0 -678 -63989 556222)">
			<stop  offset="0" style="stop-color:#0EBF98"/>
			<stop  offset="1" style="stop-color:#19BF9B"/>
		</linearGradient>
		<polygon class="st8" points="1903.8,694 1920,538.7 1920,86.9 1832.8,281.5 		"/>
		
			<linearGradient id="SVGID_9_" gradientUnits="userSpaceOnUse" x1="477.985" y1="821.7732" x2="479.0739" y2="820.6842" gradientTransform="matrix(266 0 0 -139 -126361 114671)">
			<stop  offset="0" style="stop-color:#0EC9A3"/>
			<stop  offset="1" style="stop-color:#0EC8A2"/>
		</linearGradient>
		<polygon class="st9" points="937.3,420.8 829.7,573.3 1116,567.8 		"/>
		
			<linearGradient id="SVGID_10_" gradientUnits="userSpaceOnUse" x1="478.4411" y1="821.8671" x2="479.5352" y2="820.773" gradientTransform="matrix(287 0 0 -129 -135685 106720)">
			<stop  offset="0" style="stop-color:#0BC79F"/>
			<stop  offset="1" style="stop-color:#10C8A2"/>
		</linearGradient>
		<polygon class="st10" points="1643.4,835.5 1920,824.7 1920,737.2 1903.8,694 		"/>
		
			<linearGradient id="SVGID_11_" gradientUnits="userSpaceOnUse" x1="473.9063" y1="820.0223" x2="474.9866" y2="818.942" gradientTransform="matrix(72 0 0 -796 -32243 652982)">
			<stop  offset="0" style="stop-color:#0CBB92"/>
			<stop  offset="1" style="stop-color:#1AC09C"/>
		</linearGradient>
		<polygon class="st11" points="1920,737.2 1920,538.7 1903.8,694 		"/>
		
			<linearGradient id="SVGID_12_" gradientUnits="userSpaceOnUse" x1="475.9503" y1="821.6691" x2="477.0386" y2="820.5809" gradientTransform="matrix(115 0 0 -128 -53303 106004)">
			<stop  offset="0" style="stop-color:#08C299"/>
			<stop  offset="1" style="stop-color:#08BD93"/>
		</linearGradient>
		<polygon class="st12" points="1497,808.1 1451.8,948.5 1575.6,926.6 		"/>
		
			<linearGradient id="SVGID_13_" gradientUnits="userSpaceOnUse" x1="478.3807" y1="821.7355" x2="479.4761" y2="820.6402" gradientTransform="matrix(321 0 0 -170 -153197 139849)">
			<stop  offset="0" style="stop-color:#1DE2C4"/>
			<stop  offset="1" style="stop-color:#19DDBD"/>
		</linearGradient>
		<polygon class="st13" points="360.4,244.1 377.7,341.8 705.9,155.3 		"/>
		
			<linearGradient id="SVGID_14_" gradientUnits="userSpaceOnUse" x1="478.5761" y1="821.5438" x2="479.6712" y2="820.4487" gradientTransform="matrix(363 0 0 -181 -173341 149039)">
			<stop  offset="0" style="stop-color:#23E8CC"/>
			<stop  offset="1" style="stop-color:#23E7CC"/>
		</linearGradient>
		<polygon class="st14" points="377.7,341.8 420.7,540.4 768.3,350.6 		"/>
		
			<linearGradient id="SVGID_15_" gradientUnits="userSpaceOnUse" x1="478.5203" y1="821.6218" x2="479.6146" y2="820.5275" gradientTransform="matrix(363 0 0 -178 -173341 146409)">
			<stop  offset="0" style="stop-color:#1EE5C7"/>
			<stop  offset="1" style="stop-color:#1AE1C2"/>
		</linearGradient>
		<polygon class="st15" points="705.9,155.3 377.7,341.8 768.3,350.6 		"/>
		
			<linearGradient id="SVGID_16_" gradientUnits="userSpaceOnUse" x1="471.5094" y1="821.7471" x2="472.5961" y2="820.6603" gradientTransform="matrix(58 0 0 -178 -26636 146409)">
			<stop  offset="0" style="stop-color:#19E0C1"/>
			<stop  offset="1" style="stop-color:#18E0C0"/>
		</linearGradient>
		<polygon class="st16" points="737.1,178.3 705.9,155.3 768.3,350.6 		"/>
		
			<linearGradient id="SVGID_17_" gradientUnits="userSpaceOnUse" x1="476.8617" y1="821.3677" x2="477.9533" y2="820.2761" gradientTransform="matrix(157 0 0 -203 -74098 167087)">
			<stop  offset="0" style="stop-color:#12D2AD"/>
			<stop  offset="1" style="stop-color:#13D5B2"/>
		</linearGradient>
		<polygon class="st17" points="937.3,420.8 768.3,350.6 829.7,573.3 		"/>
		
			<linearGradient id="SVGID_18_" gradientUnits="userSpaceOnUse" x1="478.7017" y1="821.0098" x2="479.7857" y2="819.9258" gradientTransform="matrix(345 0 0 -263 -164048 216569)">
			<stop  offset="0" style="stop-color:#0CCEA6"/>
			<stop  offset="1" style="stop-color:#09C59C"/>
		</linearGradient>
		<polygon class="st18" points="1080.5,779.6 1451.8,948.5 1328,660 		"/>
		
			<linearGradient id="SVGID_19_" gradientUnits="userSpaceOnUse" x1="477.1594" y1="820.9979" x2="478.2478" y2="819.9095" gradientTransform="matrix(157 0 0 -263 -73578 216569)">
			<stop  offset="0" style="stop-color:#08C299"/>
			<stop  offset="1" style="stop-color:#08C69D"/>
		</linearGradient>
		<polygon class="st19" points="1328,660 1451.8,948.5 1497,808.1 		"/>
		
			<linearGradient id="SVGID_20_" gradientUnits="userSpaceOnUse" x1="478.4446" y1="821.4376" x2="479.5229" y2="820.3593" gradientTransform="matrix(327 0 0 -194 -156021 159707)">
			<stop  offset="0" style="stop-color:#25E8CE"/>
			<stop  offset="1" style="stop-color:#1ADEBF"/>
		</linearGradient>
		<polygon class="st20" points="768.3,350.6 420.7,540.4 772.7,563.4 		"/>
		
			<linearGradient id="SVGID_21_" gradientUnits="userSpaceOnUse" x1="471.0961" y1="821.1185" x2="472.1829" y2="820.0317" gradientTransform="matrix(57 0 0 -203 -26098 167087)">
			<stop  offset="0" style="stop-color:#17DBBA"/>
			<stop  offset="1" style="stop-color:#14D5B2"/>
		</linearGradient>
		<polygon class="st21" points="829.7,573.3 768.3,350.6 772.7,563.4 		"/>
		
			<linearGradient id="SVGID_22_" gradientUnits="userSpaceOnUse" x1="478.2054" y1="820.7373" x2="479.294" y2="819.6487" gradientTransform="matrix(324 0 0 -344 -155036 282644)">
			<stop  offset="0" style="stop-color:#1AD3B1"/>
			<stop  offset="1" style="stop-color:#20D9B8"/>
		</linearGradient>
		<polygon class="st22" points="36.5,281.5 0,380.1 0,585 279.7,658.9 		"/>
		
			<linearGradient id="SVGID_23_" gradientUnits="userSpaceOnUse" x1="474.4634" y1="820.6615" x2="475.5472" y2="819.5778" gradientTransform="matrix(98 0 0 -562 -46556 461102)">
			<stop  offset="0" style="stop-color:#1CC7A4"/>
			<stop  offset="1" style="stop-color:#1DCEAB"/>
		</linearGradient>
		<polygon class="st23" points="0,163.2 0,380.1 36.5,281.5 		"/>
		
			<linearGradient id="SVGID_24_" gradientUnits="userSpaceOnUse" x1="477.4052" y1="824.2565" x2="478.4895" y2="823.1721" gradientTransform="matrix(166 0 0 -54 -77783 45432)">
			<stop  offset="0" style="stop-color:#08BA91"/>
			<stop  offset="1" style="stop-color:#08B78E"/>
		</linearGradient>
		<polygon class="st24" points="1451.8,948.5 1630.4,985.9 1575.6,926.6 		"/>
		
			<linearGradient id="SVGID_25_" gradientUnits="userSpaceOnUse" x1="477.4841" y1="821.5715" x2="478.572" y2="820.4836" gradientTransform="matrix(166 0 0 -159 -77783 131552)">
			<stop  offset="0" style="stop-color:#08B68D"/>
			<stop  offset="1" style="stop-color:#08AC84"/>
		</linearGradient>
		<polygon class="st25" points="1451.8,948.5 1559.6,1080 1606.1,1080 1630.4,985.9 		"/>
		
			<linearGradient id="SVGID_26_" gradientUnits="userSpaceOnUse" x1="473.1795" y1="821.8027" x2="474.2626" y2="820.7196" gradientTransform="matrix(63 0 0 -137 -28228 113409)">
			<stop  offset="0" style="stop-color:#08BB93"/>
			<stop  offset="1" style="stop-color:#09BC94"/>
		</linearGradient>
		<polygon class="st26" points="1630.4,985.9 1643.4,835.5 1575.6,926.6 		"/>
		
			<linearGradient id="SVGID_27_" gradientUnits="userSpaceOnUse" x1="478.6606" y1="821.6051" x2="479.7477" y2="820.5179" gradientTransform="matrix(368 0 0 -125 -174610 103706)">
			<stop  offset="0" style="stop-color:#0CAB84"/>
			<stop  offset="1" style="stop-color:#1DC2A0"/>
		</linearGradient>
		<polygon class="st27" points="1606.1,1080 1884,1080 1630.4,985.9 		"/>
		
			<linearGradient id="SVGID_28_" gradientUnits="userSpaceOnUse" x1="478.5185" y1="821.5508" x2="479.6167" y2="820.4527" gradientTransform="matrix(299 0 0 -148 -141457 122418)">
			<stop  offset="0" style="stop-color:#0AC59C"/>
			<stop  offset="1" style="stop-color:#0EC29C"/>
		</linearGradient>
		<polygon class="st28" points="1630.4,985.9 1920,839.7 1920,824.7 1643.4,835.5 		"/>
		
			<linearGradient id="SVGID_29_" gradientUnits="userSpaceOnUse" x1="478.7634" y1="820.9153" x2="479.8462" y2="819.8326" gradientTransform="matrix(335 0 0 -270 -158737 222458)">
			<stop  offset="0" style="stop-color:#19CDAC"/>
			<stop  offset="1" style="stop-color:#20CBAA"/>
		</linearGradient>
		<polygon class="st29" points="1884,1080 1920,1080 1920,839.7 1630.4,985.9 		"/>
		
			<linearGradient id="SVGID_30_" gradientUnits="userSpaceOnUse" x1="466.6458" y1="821.2828" x2="467.7321" y2="820.1966" gradientTransform="matrix(35 0 0 -215 -15274 177318)">
			<stop  offset="0" style="stop-color:#11D8B4"/>
			<stop  offset="1" style="stop-color:#14DCB9"/>
		</linearGradient>
		<polygon class="st30" points="1052.5,801.5 1090.2,1015.5 1080.5,779.6 		"/>
		
			<linearGradient id="SVGID_31_" gradientUnits="userSpaceOnUse" x1="478.4386" y1="820.9142" x2="479.5236" y2="819.8292" gradientTransform="matrix(345 0 0 -215 -164048 177318)">
			<stop  offset="0" style="stop-color:#0FD5AF"/>
			<stop  offset="1" style="stop-color:#11D4B0"/>
		</linearGradient>
		<polygon class="st31" points="1090.2,1015.5 1451.8,948.5 1080.5,779.6 		"/>
		
			<linearGradient id="SVGID_32_" gradientUnits="userSpaceOnUse" x1="479.0861" y1="821.4904" x2="480.1703" y2="820.4062" gradientTransform="matrix(469 0 0 -159 -223559 131552)">
			<stop  offset="0" style="stop-color:#09BF96"/>
			<stop  offset="1" style="stop-color:#0FC39E"/>
		</linearGradient>
		<polygon class="st32" points="1090.2,1015.5 1393.1,1080 1559.6,1080 1451.8,948.5 		"/>
		
			<linearGradient id="SVGID_33_" gradientUnits="userSpaceOnUse" x1="479.4587" y1="822.2399" x2="480.5487" y2="821.1498" gradientTransform="matrix(909 0 0 -98 -435199 81593)">
			<stop  offset="0" style="stop-color:#19DBBB"/>
			<stop  offset="1" style="stop-color:#16D0B0"/>
		</linearGradient>
		<polygon class="st33" points="803,1080 1393.1,1080 1090.2,1015.5 		"/>
		
			<linearGradient id="SVGID_34_" gradientUnits="userSpaceOnUse" x1="478.3954" y1="822.1021" x2="479.4938" y2="821.0036" gradientTransform="matrix(329 0 0 -143 -157037 117647)">
			<stop  offset="0" style="stop-color:#19DBBB"/>
			<stop  offset="1" style="stop-color:#1ADEC0"/>
		</linearGradient>
		<polygon class="st34" points="705.9,155.3 714.5,87.2 360.4,244.1 		"/>
		
			<linearGradient id="SVGID_35_" gradientUnits="userSpaceOnUse" x1="477.4724" y1="822.3149" x2="478.5575" y2="821.2298" gradientTransform="matrix(209 0 0 -103 -99552 85490)">
			<stop  offset="0" style="stop-color:#11C39F"/>
			<stop  offset="1" style="stop-color:#12C5A2"/>
		</linearGradient>
		<polygon class="st35" points="236.7,822.4 461.6,905.8 307.7,792.7 		"/>
		
			<linearGradient id="SVGID_36_" gradientUnits="userSpaceOnUse" x1="477.4611" y1="821.7861" x2="478.5494" y2="820.6978" gradientTransform="matrix(203 0 0 -158 -95952 129823)">
			<stop  offset="0" style="stop-color:#0EDBB5"/>
			<stop  offset="1" style="stop-color:#0FDBB7"/>
		</linearGradient>
		<polygon class="st36" points="1230.1,93.8 1143,0 1073.4,0 1011.6,124.6 		"/>
		
			<linearGradient id="SVGID_37_" gradientUnits="userSpaceOnUse" x1="478.0811" y1="821.4641" x2="479.1756" y2="820.3696" gradientTransform="matrix(255 0 0 -206 -121167 169341)">
			<stop  offset="0" style="stop-color:#16DEBD"/>
			<stop  offset="1" style="stop-color:#13DDBB"/>
		</linearGradient>
		<polygon class="st37" points="768.3,350.6 1011.6,124.6 737.1,178.3 		"/>
		
			<linearGradient id="SVGID_38_" gradientUnits="userSpaceOnUse" x1="477.9076" y1="821.2911" x2="478.9906" y2="820.2081" gradientTransform="matrix(224 0 0 -195 -106183 160938)">
			<stop  offset="0" style="stop-color:#14DBB8"/>
			<stop  offset="1" style="stop-color:#18E3C4"/>
		</linearGradient>
		<polygon class="st38" points="849.1,914.5 1090.2,1015.5 1052.5,801.5 		"/>
		
			<linearGradient id="SVGID_39_" gradientUnits="userSpaceOnUse" x1="478.6919" y1="821.2771" x2="479.7831" y2="820.1859" gradientTransform="matrix(360 0 0 -197 -171823 162673)">
			<stop  offset="0" style="stop-color:#11C9A5"/>
			<stop  offset="1" style="stop-color:#13D5B3"/>
		</linearGradient>
		<polygon class="st39" points="461.6,905.8 586.5,1080 663.6,1080 849.1,914.5 		"/>
		
			<linearGradient id="SVGID_40_" gradientUnits="userSpaceOnUse" x1="478.7945" y1="821.1441" x2="479.881" y2="820.0576" gradientTransform="matrix(440 0 0 -189 -210079 156121)">
			<stop  offset="0" style="stop-color:#18DBBA"/>
			<stop  offset="1" style="stop-color:#1AE5C6"/>
		</linearGradient>
		<polygon class="st40" points="849.1,914.5 663.6,1080 803,1080 1090.2,1015.5 		"/>
		
			<linearGradient id="SVGID_41_" gradientUnits="userSpaceOnUse" x1="477.4709" y1="820.6601" x2="478.5556" y2="819.5754" gradientTransform="matrix(207 0 0 -311 -98041 255850)">
			<stop  offset="0" style="stop-color:#11D2AD"/>
			<stop  offset="1" style="stop-color:#12D8B4"/>
		</linearGradient>
		<polygon class="st41" points="829.7,573.3 849.1,914.5 1052.5,801.5 		"/>
		
			<linearGradient id="SVGID_42_" gradientUnits="userSpaceOnUse" x1="461.5845" y1="822.584" x2="462.6716" y2="821.497" gradientTransform="matrix(26 0 0 -88 -10954 73110)">
			<stop  offset="0" style="stop-color:#0FD2AC"/>
			<stop  offset="1" style="stop-color:#0DCEA7"/>
		</linearGradient>
		<polygon class="st42" points="1052.5,801.5 1080.5,779.6 1060,705 		"/>
		
			<linearGradient id="SVGID_43_" gradientUnits="userSpaceOnUse" x1="478.1162" y1="822.2994" x2="479.2111" y2="821.2045" gradientTransform="matrix(249 0 0 -109 -117987 90289)">
			<stop  offset="0" style="stop-color:#0CCCA6"/>
			<stop  offset="1" style="stop-color:#0BC8A1"/>
		</linearGradient>
		<polygon class="st43" points="1080.5,779.6 1328,660 1060,705 		"/>
		
			<linearGradient id="SVGID_44_" gradientUnits="userSpaceOnUse" x1="477.8103" y1="821.3309" x2="478.8972" y2="820.244" gradientTransform="matrix(214 0 0 -208 -101401 171390)">
			<stop  offset="0" style="stop-color:#0FCDA8"/>
			<stop  offset="1" style="stop-color:#0DCDA7"/>
		</linearGradient>
		<polygon class="st44" points="829.7,573.3 1052.5,801.5 1060,705 		"/>
		
			<linearGradient id="SVGID_45_" gradientUnits="userSpaceOnUse" x1="478.3719" y1="822.2685" x2="479.4596" y2="821.1808" gradientTransform="matrix(266 0 0 -125 -126361 103325)">
			<stop  offset="0" style="stop-color:#0FCAA4"/>
			<stop  offset="1" style="stop-color:#0BC59E"/>
		</linearGradient>
		<polygon class="st45" points="1116,567.8 829.7,573.3 1060,705 		"/>
		
			<linearGradient id="SVGID_46_" gradientUnits="userSpaceOnUse" x1="478.5054" y1="821.4077" x2="479.5854" y2="820.3277" gradientTransform="matrix(323 0 0 -205 -153413 168493)">
			<stop  offset="0" style="stop-color:#13D8B5"/>
			<stop  offset="1" style="stop-color:#13D7B4"/>
		</linearGradient>
		<polygon class="st46" points="1508.8,132.2 1230.1,93.8 1161.2,318.8 		"/>
		
			<linearGradient id="SVGID_47_" gradientUnits="userSpaceOnUse" x1="478.8342" y1="821.6747" x2="479.9269" y2="820.5821" gradientTransform="matrix(428 0 0 -170 -203813 139828)">
			<stop  offset="0" style="stop-color:#15D8B5"/>
			<stop  offset="1" style="stop-color:#15D4B3"/>
		</linearGradient>
		<polygon class="st47" points="1621.8,299 1508.8,132.2 1161.2,318.8 		"/>
		
			<linearGradient id="SVGID_48_" gradientUnits="userSpaceOnUse" x1="478.1928" y1="823.6689" x2="479.2999" y2="822.5618" gradientTransform="matrix(258 0 0 -84 -122149 69189)">
			<stop  offset="0" style="stop-color:#11D5B1"/>
			<stop  offset="1" style="stop-color:#0FC8A4"/>
		</linearGradient>
		<polygon class="st48" points="1507.8,1.7 1230.1,93.8 1438.9,73 		"/>
		
			<linearGradient id="SVGID_49_" gradientUnits="userSpaceOnUse" x1="478.3276" y1="825.6772" x2="479.4121" y2="824.5927" gradientTransform="matrix(259 0 0 -54 -122629 44654)">
			<stop  offset="0" style="stop-color:#12D7B4"/>
			<stop  offset="1" style="stop-color:#12CFAE"/>
		</linearGradient>
		<polygon class="st49" points="1438.9,73 1230.1,93.8 1508.8,132.2 		"/>
		
			<linearGradient id="SVGID_50_" gradientUnits="userSpaceOnUse" x1="473.2555" y1="822.6938" x2="474.3383" y2="821.611" gradientTransform="matrix(65 0 0 -119 -29315 97889)">
			<stop  offset="0" style="stop-color:#0EC39D"/>
			<stop  offset="1" style="stop-color:#11CCA9"/>
		</linearGradient>
		<polygon class="st50" points="1508.8,132.2 1507.8,1.7 1438.9,73 		"/>
		
			<linearGradient id="SVGID_51_" gradientUnits="userSpaceOnUse" x1="476.203" y1="821.9993" x2="477.316" y2="820.8864" gradientTransform="matrix(125 0 0 -129 -58467 106601)">
			<stop  offset="0" style="stop-color:#0BC69F"/>
			<stop  offset="1" style="stop-color:#0BC29B"/>
		</linearGradient>
		<polygon class="st51" points="1060,705 1194.6,563.4 1116,567.8 		"/>
		
			<linearGradient id="SVGID_52_" gradientUnits="userSpaceOnUse" x1="477.9582" y1="821.8605" x2="479.0466" y2="820.7721" gradientTransform="matrix(249 0 0 -129 -117987 106601)">
			<stop  offset="0" style="stop-color:#0BC69F"/>
			<stop  offset="1" style="stop-color:#0AC49C"/>
		</linearGradient>
		<polygon class="st52" points="1328,660 1194.6,563.4 1060,705 		"/>
		
			<linearGradient id="SVGID_53_" gradientUnits="userSpaceOnUse" x1="473.4514" y1="821.1149" x2="474.5423" y2="820.024" gradientTransform="matrix(73 0 0 -227 -33455 186738)">
			<stop  offset="0" style="stop-color:#0CC49D"/>
			<stop  offset="1" style="stop-color:#0DC9A3"/>
		</linearGradient>
		<polygon class="st53" points="1194.6,563.4 1161.2,318.8 1116,567.8 		"/>
		
			<linearGradient id="SVGID_54_" gradientUnits="userSpaceOnUse" x1="478.926" y1="821.1802" x2="480.0216" y2="820.0845" gradientTransform="matrix(428 0 0 -241 -203813 198200)">
			<stop  offset="0" style="stop-color:#13D4B1"/>
			<stop  offset="1" style="stop-color:#11CEAA"/>
		</linearGradient>
		<polygon class="st54" points="1194.6,563.4 1621.8,299 1161.2,318.8 		"/>
		
			<linearGradient id="SVGID_55_" gradientUnits="userSpaceOnUse" x1="478.9049" y1="820.9181" x2="479.9908" y2="819.8322" gradientTransform="matrix(397 0 0 -329 -188902 270360)">
			<stop  offset="0" style="stop-color:#0DCAA3"/>
			<stop  offset="1" style="stop-color:#0FCCA7"/>
		</linearGradient>
		<polygon class="st55" points="1328,660 1621.8,299 1194.6,563.4 		"/>
		
			<linearGradient id="SVGID_56_" gradientUnits="userSpaceOnUse" x1="467.8436" y1="824.3518" x2="468.9466" y2="823.2488" gradientTransform="matrix(41 0 0 -69 -18476 56960)">
			<stop  offset="0" style="stop-color:#1ADFBF"/>
			<stop  offset="1" style="stop-color:#1ADEBF"/>
		</linearGradient>
		<polygon class="st56" points="750,79.6 714.5,87.2 705.9,155.3 		"/>
		
			<linearGradient id="SVGID_57_" gradientUnits="userSpaceOnUse" x1="467.9166" y1="823.3909" x2="468.998" y2="822.3094" gradientTransform="matrix(41 0 0 -90 -18476 74180)">
			<stop  offset="0" style="stop-color:#19E0BF"/>
			<stop  offset="1" style="stop-color:#19DFBE"/>
		</linearGradient>
		<polygon class="st57" points="750,79.6 705.9,155.3 737.1,178.3 		"/>
		
			<linearGradient id="SVGID_58_" gradientUnits="userSpaceOnUse" x1="477.7067" y1="822.2524" x2="478.7994" y2="821.1597" gradientTransform="matrix(203 0 0 -136 -95952 111913)">
			<stop  offset="0" style="stop-color:#0FDBB8"/>
			<stop  offset="1" style="stop-color:#0FDAB5"/>
		</linearGradient>
		<polygon class="st58" points="1230.1,93.8 1011.6,124.6 1058.9,243 		"/>
		
			<linearGradient id="SVGID_59_" gradientUnits="userSpaceOnUse" x1="477.1163" y1="821.5421" x2="478.2001" y2="820.4582" gradientTransform="matrix(159 0 0 -205 -74788 168493)">
			<stop  offset="0" style="stop-color:#11D7B3"/>
			<stop  offset="1" style="stop-color:#10DAB5"/>
		</linearGradient>
		<polygon class="st59" points="1161.2,318.8 1230.1,93.8 1058.9,243 		"/>
		
			<linearGradient id="SVGID_60_" gradientUnits="userSpaceOnUse" x1="478.1159" y1="821.3967" x2="479.2081" y2="820.3044" gradientTransform="matrix(270 0 0 -206 -128338 169341)">
			<stop  offset="0" style="stop-color:#14DCBA"/>
			<stop  offset="1" style="stop-color:#0FD9B5"/>
		</linearGradient>
		<polygon class="st60" points="1058.9,243 1011.6,124.6 768.3,350.6 		"/>
		
			<linearGradient id="SVGID_61_" gradientUnits="userSpaceOnUse" x1="478.2786" y1="821.8645" x2="479.3633" y2="820.7798" gradientTransform="matrix(270 0 0 -162 -128338 133369)">
			<stop  offset="0" style="stop-color:#14D9B7"/>
			<stop  offset="1" style="stop-color:#0FD3AE"/>
		</linearGradient>
		<polygon class="st61" points="1058.9,243 768.3,350.6 937.3,420.8 		"/>
		
			<linearGradient id="SVGID_62_" gradientUnits="userSpaceOnUse" x1="477.5594" y1="821.6458" x2="478.6458" y2="820.5594" gradientTransform="matrix(208 0 0 -162 -98421 133369)">
			<stop  offset="0" style="stop-color:#0FCFA9"/>
			<stop  offset="1" style="stop-color:#0FD4AF"/>
		</linearGradient>
		<polygon class="st62" points="1161.2,318.8 1058.9,243 937.3,420.8 		"/>
		
			<linearGradient id="SVGID_63_" gradientUnits="userSpaceOnUse" x1="479.4904" y1="823.8524" x2="480.5787" y2="822.7641" gradientTransform="matrix(1081 0 0 -81 -518393 66682)">
			<stop  offset="0" style="stop-color:#1FCDAB"/>
			<stop  offset="1" style="stop-color:#17DAB8"/>
		</linearGradient>
		<polygon class="st63" points="930.7,0 418.9,0 797.4,39 		"/>
		
			<linearGradient id="SVGID_64_" gradientUnits="userSpaceOnUse" x1="479.371" y1="822.5555" x2="480.4583" y2="821.4682" gradientTransform="matrix(802 0 0 -125 -384473 102762)">
			<stop  offset="0" style="stop-color:#1BC6A4"/>
			<stop  offset="1" style="stop-color:#19D7B7"/>
		</linearGradient>
		<polygon class="st64" points="797.4,39 418.9,0 218.1,0 714.5,87.2 		"/>
		
			<linearGradient id="SVGID_65_" gradientUnits="userSpaceOnUse" x1="473.5015" y1="826.9372" x2="474.6431" y2="825.7957" gradientTransform="matrix(77 0 0 -44 -35748 36423)">
			<stop  offset="0" style="stop-color:#1ADEBE"/>
			<stop  offset="1" style="stop-color:#19DDBD"/>
		</linearGradient>
		<polygon class="st65" points="797.4,39 714.5,87.2 750,79.6 		"/>
		
			<linearGradient id="SVGID_66_" gradientUnits="userSpaceOnUse" x1="471.1355" y1="822.3932" x2="472.2418" y2="821.287" gradientTransform="matrix(56 0 0 -127 -25647 104483)">
			<stop  offset="0" style="stop-color:#19DFBF"/>
			<stop  offset="1" style="stop-color:#19DEBD"/>
		</linearGradient>
		<polygon class="st66" points="737.1,178.3 797.4,39 750,79.6 		"/>
		
			<linearGradient id="SVGID_67_" gradientUnits="userSpaceOnUse" x1="477.9638" y1="822.363" x2="479.052" y2="821.2748" gradientTransform="matrix(196 0 0 -129 -92025 106344)">
			<stop  offset="0" style="stop-color:#11CFAC"/>
			<stop  offset="1" style="stop-color:#0EC7A1"/>
		</linearGradient>
		<polygon class="st67" points="1832.8,281.5 1621.8,299 1761.8,423 		"/>
		
			<linearGradient id="SVGID_68_" gradientUnits="userSpaceOnUse" x1="476.8362" y1="820.7897" x2="477.9207" y2="819.7051" gradientTransform="matrix(132 0 0 -376 -61175 308884)">
			<stop  offset="0" style="stop-color:#0DC19B"/>
			<stop  offset="1" style="stop-color:#0CC49D"/>
		</linearGradient>
		<polygon class="st68" points="1903.8,694 1832.8,281.5 1761.8,423 		"/>
		
			<linearGradient id="SVGID_69_" gradientUnits="userSpaceOnUse" x1="479.0429" y1="821.191" x2="480.1947" y2="820.0392" gradientTransform="matrix(587 0 0 -197 -281226 162673)">
			<stop  offset="0" style="stop-color:#10B48F"/>
			<stop  offset="1" style="stop-color:#19B08E"/>
		</linearGradient>
		<polygon class="st69" points="47.8,1080 620,1080 460.8,906.1 		"/>
		
			<linearGradient id="SVGID_70_" gradientUnits="userSpaceOnUse" x1="475.1259" y1="821.8689" x2="476.2114" y2="820.7834" gradientTransform="matrix(100 0 0 -158 -46532 129823)">
			<stop  offset="0" style="stop-color:#0EDBB8"/>
			<stop  offset="1" style="stop-color:#0EDBB6"/>
		</linearGradient>
		<polygon class="st70" points="1011.6,124.6 1073.4,0 1061.7,0 990.1,97.1 		"/>
		
			<linearGradient id="SVGID_71_" gradientUnits="userSpaceOnUse" x1="478.0213" y1="824.0204" x2="479.1145" y2="822.9271" gradientTransform="matrix(255 0 0 -74 -121167 61076)">
			<stop  offset="0" style="stop-color:#15DEBC"/>
			<stop  offset="1" style="stop-color:#0FDBB8"/>
		</linearGradient>
		<polygon class="st71" points="1011.6,124.6 990.1,97.1 737.1,178.3 		"/>
		
			<linearGradient id="SVGID_72_" gradientUnits="userSpaceOnUse" x1="477.7693" y1="822.2751" x2="478.853" y2="821.1914" gradientTransform="matrix(235 0 0 -127 -111567 104483)">
			<stop  offset="0" style="stop-color:#16DEBD"/>
			<stop  offset="1" style="stop-color:#14DDBA"/>
		</linearGradient>
		<polygon class="st72" points="990.1,97.1 797.4,39 737.1,178.3 		"/>
		
			<linearGradient id="SVGID_73_" gradientUnits="userSpaceOnUse" x1="478.222" y1="822.3206" x2="479.3063" y2="821.2363" gradientTransform="matrix(279 0 0 -133 -132631 109323)">
			<stop  offset="0" style="stop-color:#15DCBA"/>
			<stop  offset="1" style="stop-color:#0FDBB6"/>
		</linearGradient>
		<polygon class="st73" points="990.1,97.1 1061.7,0 930.7,0 797.4,39 		"/>
		
			<linearGradient id="SVGID_74_" gradientUnits="userSpaceOnUse" x1="478.5302" y1="821.6799" x2="479.619" y2="820.5912" gradientTransform="matrix(281 0 0 -164 -133098 135360)">
			<stop  offset="0" style="stop-color:#09C89F"/>
			<stop  offset="1" style="stop-color:#09CAA0"/>
		</linearGradient>
		<polygon class="st74" points="1630.4,628.2 1328,660 1497,808.1 		"/>
		
			<linearGradient id="SVGID_75_" gradientUnits="userSpaceOnUse" x1="478.3616" y1="820.8511" x2="479.4582" y2="819.7545" gradientTransform="matrix(281 0 0 -329 -133098 270360)">
			<stop  offset="0" style="stop-color:#0DCDA5"/>
			<stop  offset="1" style="stop-color:#0FD1AB"/>
		</linearGradient>
		<polygon class="st75" points="1630.4,628.2 1621.8,299 1328,660 		"/>
		
			<linearGradient id="SVGID_76_" gradientUnits="userSpaceOnUse" x1="476.7652" y1="821.3318" x2="477.844" y2="820.2531" gradientTransform="matrix(136 0 0 -189 -63341 155860)">
			<stop  offset="0" style="stop-color:#08C79E"/>
			<stop  offset="1" style="stop-color:#09C9A0"/>
		</linearGradient>
		<polygon class="st76" points="1497,808.1 1643.4,835.5 1630.4,628.2 		"/>
		
			<linearGradient id="SVGID_77_" gradientUnits="userSpaceOnUse" x1="476.576" y1="820.8447" x2="477.658" y2="819.7626" gradientTransform="matrix(130 0 0 -300 -60345 246580)">
			<stop  offset="0" style="stop-color:#12D2AF"/>
			<stop  offset="1" style="stop-color:#0DCDA7"/>
		</linearGradient>
		<polygon class="st77" points="1761.8,423 1621.8,299 1630.4,628.2 		"/>
		
			<linearGradient id="SVGID_78_" gradientUnits="userSpaceOnUse" x1="478.2174" y1="821.2529" x2="479.2988" y2="820.1716" gradientTransform="matrix(254 0 0 -189 -119857 155860)">
			<stop  offset="0" style="stop-color:#09C89F"/>
			<stop  offset="1" style="stop-color:#0BC9A0"/>
		</linearGradient>
		<polygon class="st78" points="1643.4,835.5 1903.8,694 1630.4,628.2 		"/>
		
			<linearGradient id="SVGID_79_" gradientUnits="userSpaceOnUse" x1="478.2153" y1="821.0181" x2="479.3053" y2="819.928" gradientTransform="matrix(254 0 0 -247 -119857 203233)">
			<stop  offset="0" style="stop-color:#0CC9A2"/>
			<stop  offset="1" style="stop-color:#0BC9A0"/>
		</linearGradient>
		<polygon class="st79" points="1630.4,628.2 1903.8,694 1761.8,423 		"/>
		
			<linearGradient id="SVGID_80_" gradientUnits="userSpaceOnUse" x1="478.1675" y1="820.9445" x2="479.2547" y2="819.8573" gradientTransform="matrix(320 0 0 -230 -152766 189400)">
			<stop  offset="0" style="stop-color:#1AD6B6"/>
			<stop  offset="1" style="stop-color:#21E2C5"/>
		</linearGradient>
		<polygon class="st80" points="307.7,792.7 652.1,725.8 420.7,540.4 		"/>
		
			<linearGradient id="SVGID_81_" gradientUnits="userSpaceOnUse" x1="478.4719" y1="821.5963" x2="479.5604" y2="820.5078" gradientTransform="matrix(320 0 0 -164 -152766 135449)">
			<stop  offset="0" style="stop-color:#15CEAC"/>
			<stop  offset="1" style="stop-color:#15CEAC"/>
		</linearGradient>
		<polygon class="st81" points="307.7,792.7 461.6,905.8 652.1,725.8 		"/>
		
			<linearGradient id="SVGID_82_" gradientUnits="userSpaceOnUse" x1="478.5526" y1="821.6738" x2="479.6415" y2="820.5848" gradientTransform="matrix(327 0 0 -169 -156021 139380)">
			<stop  offset="0" style="stop-color:#26E8CD"/>
			<stop  offset="1" style="stop-color:#1BDCBC"/>
		</linearGradient>
		<polygon class="st82" points="420.7,540.4 652.1,725.8 772.7,563.4 		"/>
		
			<linearGradient id="SVGID_83_" gradientUnits="userSpaceOnUse" x1="478.4357" y1="821.288" x2="479.5258" y2="820.1979" gradientTransform="matrix(360 0 0 -172 -171823 142009)">
			<stop  offset="0" style="stop-color:#12CAA7"/>
			<stop  offset="1" style="stop-color:#16DAB9"/>
		</linearGradient>
		<polygon class="st83" points="652.1,725.8 461.6,905.8 849.1,914.5 		"/>
		
			<linearGradient id="SVGID_84_" gradientUnits="userSpaceOnUse" x1="476.9352" y1="821.7195" x2="478.0148" y2="820.64" gradientTransform="matrix(165 0 0 -148 -78046 122181)">
			<stop  offset="0" style="stop-color:#16D8B5"/>
			<stop  offset="1" style="stop-color:#15D7B3"/>
		</linearGradient>
		<polygon class="st84" points="772.7,563.4 652.1,725.8 829.7,573.3 		"/>
		
			<linearGradient id="SVGID_85_" gradientUnits="userSpaceOnUse" x1="477.3804" y1="820.9424" x2="478.4642" y2="819.8586" gradientTransform="matrix(183 0 0 -311 -86686 255850)">
			<stop  offset="0" style="stop-color:#12D3AF"/>
			<stop  offset="1" style="stop-color:#16DBB9"/>
		</linearGradient>
		<polygon class="st85" points="652.1,725.8 849.1,914.5 829.7,573.3 		"/>
		
			<linearGradient id="SVGID_86_" gradientUnits="userSpaceOnUse" x1="478.3553" y1="822.3652" x2="479.4379" y2="821.2825" gradientTransform="matrix(317 0 0 -126 -151578 103813)">
			<stop  offset="0" style="stop-color:#16CFAD"/>
			<stop  offset="1" style="stop-color:#18D6B6"/>
		</linearGradient>
		<polygon class="st86" points="323.8,203.5 36.5,281.5 377.7,341.8 		"/>
		
			<linearGradient id="SVGID_87_" gradientUnits="userSpaceOnUse" x1="469.594" y1="822.3944" x2="470.6808" y2="821.3077" gradientTransform="matrix(50 0 0 -126 -23151 103813)">
			<stop  offset="0" style="stop-color:#17D9B7"/>
			<stop  offset="1" style="stop-color:#19D9B8"/>
		</linearGradient>
		<polygon class="st87" points="323.8,203.5 377.7,341.8 360.4,244.1 		"/>
		
			<linearGradient id="SVGID_88_" gradientUnits="userSpaceOnUse" x1="477.9412" y1="823.7719" x2="479.0384" y2="822.6747" gradientTransform="matrix(267 0 0 -77 -127578 63627)">
			<stop  offset="0" style="stop-color:#14CBA7"/>
			<stop  offset="1" style="stop-color:#12CCA8"/>
		</linearGradient>
		<polygon class="st88" points="323.8,197 36.5,281.5 323.8,203.5 		"/>
		
			<linearGradient id="SVGID_89_" gradientUnits="userSpaceOnUse" x1="464.5159" y1="826.7067" x2="465.6027" y2="825.6199" gradientTransform="matrix(34 0 0 -43 -15471 35747)">
			<stop  offset="0" style="stop-color:#13CFAC"/>
			<stop  offset="1" style="stop-color:#14D2AF"/>
		</linearGradient>
		<polygon class="st89" points="360.4,244.1 323.8,197 323.8,203.5 		"/>
		
			<linearGradient id="SVGID_90_" gradientUnits="userSpaceOnUse" x1="478.575" y1="822.1144" x2="479.6672" y2="821.0222" gradientTransform="matrix(363 0 0 -143 -173391 117647)">
			<stop  offset="0" style="stop-color:#17D8B7"/>
			<stop  offset="1" style="stop-color:#16D6B5"/>
		</linearGradient>
		<polygon class="st90" points="714.5,87.2 323.8,197 360.4,244.1 		"/>
		
			<linearGradient id="SVGID_91_" gradientUnits="userSpaceOnUse" x1="478.334" y1="820.8938" x2="479.4193" y2="819.8086" gradientTransform="matrix(362 0 0 -302 -173273 247902)">
			<stop  offset="0" style="stop-color:#17C09C"/>
			<stop  offset="1" style="stop-color:#12C7A3"/>
		</linearGradient>
		<polygon class="st91" points="323.8,197 13,0 0,0 0,163.2 36.5,281.5 		"/>
		
			<linearGradient id="SVGID_92_" gradientUnits="userSpaceOnUse" x1="479.2143" y1="821.363" x2="480.298" y2="820.2792" gradientTransform="matrix(725 0 0 -225 -347513 184762)">
			<stop  offset="0" style="stop-color:#16BF9A"/>
			<stop  offset="1" style="stop-color:#13CDAA"/>
		</linearGradient>
		<polygon class="st92" points="714.5,87.2 218.1,0 13,0 323.8,197 		"/>
		
			<linearGradient id="SVGID_93_" gradientUnits="userSpaceOnUse" x1="478.9307" y1="826.3728" x2="480.0186" y2="825.2849" gradientTransform="matrix(499 0 0 -48 -237952 39621)">
			<stop  offset="0" style="stop-color:#0DCFA8"/>
			<stop  offset="1" style="stop-color:#0BB991"/>
		</linearGradient>
		<polygon class="st93" points="1511.8,0 1494.2,0 1507.8,1.7 		"/>
		
			<linearGradient id="SVGID_94_" gradientUnits="userSpaceOnUse" x1="476.1071" y1="821.7147" x2="477.204" y2="820.6177" gradientTransform="matrix(118 0 0 -167 -54691 137201)">
			<stop  offset="0" style="stop-color:#0CBD96"/>
			<stop  offset="1" style="stop-color:#0EBC97"/>
		</linearGradient>
		<polygon class="st94" points="1508.8,132.2 1599.7,0 1511.8,0 1507.8,1.7 		"/>
		
			<linearGradient id="SVGID_95_" gradientUnits="userSpaceOnUse" x1="476.3143" y1="821.056" x2="477.3979" y2="819.9724" gradientTransform="matrix(117 0 0 -319 -54210 261841)">
			<stop  offset="0" style="stop-color:#11CAA7"/>
			<stop  offset="1" style="stop-color:#0FC19C"/>
		</linearGradient>
		<polygon class="st95" points="1621.8,299 1632.9,0 1599.7,0 1508.8,132.2 		"/>
		
			<linearGradient id="SVGID_96_" gradientUnits="userSpaceOnUse" x1="477.5306" y1="820.7194" x2="478.6174" y2="819.6325" gradientTransform="matrix(196 0 0 -319 -92025 261841)">
			<stop  offset="0" style="stop-color:#12CCA9"/>
			<stop  offset="1" style="stop-color:#0DBB95"/>
		</linearGradient>
		<polygon class="st96" points="1832.8,281.5 1665.1,0 1632.9,0 1621.8,299 		"/>
		
			<linearGradient id="SVGID_97_" gradientUnits="userSpaceOnUse" x1="478.7165" y1="821.0886" x2="479.8061" y2="819.999" gradientTransform="matrix(322 0 0 -303 -152493 248721)">
			<stop  offset="0" style="stop-color:#10BC96"/>
			<stop  offset="1" style="stop-color:#17B590"/>
		</linearGradient>
		<polygon class="st97" points="1920,86.9 1920,0 1665.1,0 1832.8,281.5 		"/>
		
			<linearGradient id="SVGID_98_" gradientUnits="userSpaceOnUse" x1="476.2587" y1="821.2822" x2="477.3678" y2="820.1731" gradientTransform="matrix(145 0 0 -196 -68937 161628)">
			<stop  offset="0" style="stop-color:#12C6A2"/>
			<stop  offset="1" style="stop-color:#16C9A6"/>
		</linearGradient>
		<polygon class="st98" points="279.7,658.9 123.7,873.9 236.7,822.4 		"/>
		
			<linearGradient id="SVGID_99_" gradientUnits="userSpaceOnUse" x1="478.2006" y1="823.0097" x2="479.2894" y2="821.9208" gradientTransform="matrix(314 0 0 -76 -150057 63377)">
			<stop  offset="0" style="stop-color:#10BF9A"/>
			<stop  offset="1" style="stop-color:#10BB95"/>
		</linearGradient>
		<polygon class="st99" points="123.7,873.9 461.6,905.8 236.7,822.4 		"/>
		
			<linearGradient id="SVGID_100_" gradientUnits="userSpaceOnUse" x1="478.3543" y1="820.98" x2="479.4441" y2="819.8903" gradientTransform="matrix(324 0 0 -280 -155036 230424)">
			<stop  offset="0" style="stop-color:#20D2AF"/>
			<stop  offset="1" style="stop-color:#18CCAA"/>
		</linearGradient>
		<polygon class="st100" points="279.7,658.9 0,585 0,676.8 123.7,873.9 		"/>
		
			<linearGradient id="SVGID_101_" gradientUnits="userSpaceOnUse" x1="476.8461" y1="820.5189" x2="477.9305" y2="819.4345" gradientTransform="matrix(179 0 0 -441 -85436 362444)">
			<stop  offset="0" style="stop-color:#20C6A4"/>
			<stop  offset="1" style="stop-color:#1BAF8D"/>
		</linearGradient>
		<polygon class="st101" points="0,676.8 0,1017.9 123.7,873.9 		"/>
		
			<linearGradient id="SVGID_102_" gradientUnits="userSpaceOnUse" x1="476.1765" y1="821.159" x2="477.2683" y2="820.0673" gradientTransform="matrix(141 0 0 -212 -67158 174944)">
			<stop  offset="0" style="stop-color:#229F81"/>
			<stop  offset="1" style="stop-color:#1DA484"/>
		</linearGradient>
		<polygon class="st102" points="0,1017.9 0,1080 0.7,1080 123.7,873.9 		"/>
		
			<linearGradient id="SVGID_103_" gradientUnits="userSpaceOnUse" x1="478.7573" y1="821.0832" x2="479.837" y2="820.0035" gradientTransform="matrix(443 0 0 -212 -212106 174944)">
			<stop  offset="0" style="stop-color:#1CA07F"/>
			<stop  offset="1" style="stop-color:#10B48F"/>
		</linearGradient>
		<polygon class="st103" points="460.8,906.1 461.6,905.8 123.7,873.9 0.7,1080 46.8,1080 460.5,905.8 		"/>
		
			<linearGradient id="SVGID_104_" gradientUnits="userSpaceOnUse" x1="479.065" y1="821.1686" x2="480.1581" y2="820.0756" gradientTransform="matrix(587 0 0 -197 -281226 162673)">
			<stop  offset="0" style="stop-color:#10B48F"/>
			<stop  offset="1" style="stop-color:#19B08E"/>
		</linearGradient>
		<polygon class="st104" points="460.5,905.8 46.8,1080 47.8,1080 460.8,906.1 		"/>
		
			<linearGradient id="SVGID_105_" gradientUnits="userSpaceOnUse" x1="478.7827" y1="821.1086" x2="479.8624" y2="820.0289" gradientTransform="matrix(443 0 0 -212 -212106 174944)">
			<stop  offset="0" style="stop-color:#1CA07F"/>
			<stop  offset="1" style="stop-color:#10B48F"/>
		</linearGradient>
		<polygon class="st105" points="460.5,905.8 46.8,1080 47.8,1080 460.8,906.1 		"/>
	</g>
</g>
</svg>
