<?xml version="1.0" encoding="utf-8"?>
<!-- Generator: Adobe Illustrator 19.0.0, SVG Export Plug-In . SVG Version: 6.00 Build 0)  -->
<svg version="1.1" id="Layer_1" xmlns="http://www.w3.org/2000/svg" xmlns:xlink="http://www.w3.org/1999/xlink" x="0px" y="0px"
	 viewBox="0 0 300 300" style="enable-background:new 0 0 300 300;" xml:space="preserve">
<style type="text/css">
	.st0{fill:#127F6A;}
	.st1{fill:#26B99A;}
</style>
<g id="XMLID_1_">
	<g id="XMLID_22_" transform="translate(0.738281, 121.593)">
		<path id="XMLID_23_" class="st0" d="M-0.9,92.1H9V53.1l15.3,34.1c1.8,4.1,4.3,5.6,9.1,5.6c4.9,0,7.2-1.5,9-5.6l15.3-34.1v39.1h9.9
			v-39c0-3.8-1.5-5.6-4.7-6.6c-7.5-2.3-12.6-0.3-14.8,4.8l-15,33.6L18.6,51.3c-2.2-5.1-7.3-7.1-14.8-4.8c-3.1,1-4.7,2.8-4.7,6.6
			V92.1z"/>
	</g>
	<g id="XMLID_20_" transform="translate(100.444, 142.416)">
		<path id="XMLID_21_" class="st0" d="M-23.8,39.5h9.9V61c-0.1,1.2,0.4,3.9,5.8,4c2.8,0,21.3,0,21.5,0V39.4h9.9c0,0,0,35,0,35.1
			C23.4,83.1,12.6,85,7.7,85.2h-31.2v-6.7c0.1,0,31.2,0,31.3,0c6.4-0.7,5.6-3.8,5.6-4.9V71h-21c-9.8-0.1-16-4.4-16.1-9.3
			C-23.8,61.3-23.6,39.7-23.8,39.5z"/>
	</g>
	<g id="XMLID_18_" transform="translate(171.496, 124.557)">
		<path id="XMLID_19_" class="st1" d="M-40.1,89.2h28.5c3.3,0,6.6-0.7,9.1-1.9c4.3-2,6.4-4.6,6.4-8.1v-7.2c0-2.9-2.4-5.5-7-7.3
			c-2.5-1-5.5-1.5-8.5-1.5h-12c-4,0-5.9-1.2-6.4-3.9c-0.1-0.3-0.1-0.6-0.1-0.9v-4.5c0-0.3,0-0.5,0.1-0.8c0.5-2,1.5-2.6,5-2.9
			c0.3,0,0.7-0.1,1-0.1H4.2v-6.6h-27.8c-4,0-6.1,0.3-8,0.8c-5.9,1.8-8.5,4.8-8.5,9.8v5.8c0,4.4,5,8.2,13.5,9.1
			c1,0.1,1.9,0.1,2.9,0.1h10.3c0.4,0,0.8,0,1,0.1c3.1,0.3,4.5,0.8,5.4,2c0.6,0.6,0.8,1.1,0.8,1.8v5.8c0,0.7-0.5,1.6-1.4,2.3
			c-0.9,0.8-2.3,1.3-4.2,1.4c-0.4,0-0.7,0.1-1,0.1h-27.3V89.2z"/>
	</g>
	<g id="XMLID_16_" transform="translate(308.656, 124.557)">
		<path id="XMLID_17_" class="st1" d="M-71.6,77.7c0,6.8,5,10.6,15.2,11.4c1,0.1,1.9,0.1,2.9,0.1h25.8v-6.6h-26c-5.8,0-8-1.5-8-4.9
			V43.5h-9.9V77.7z"/>
	</g>
	<g id="XMLID_12_" transform="translate(236.74, 124.666)">
		<path id="XMLID_13_" class="st1" d="M-55.1,77.9V54.4c0-6,4.2-9.6,12.5-10.7c0.9-0.1,1.8-0.2,2.7-0.2h18.8c1,0,1.8,0.1,2.8,0.2
			c8.3,1.1,12.5,4.8,12.5,10.7v23.5c0,4.8-1.8,7.4-5.9,9.1l9.7,8.8h-11.5l-7.9-7.1l-7.9,0.5h-10.6c-1.8,0-3.7-0.3-5.8-0.8
			C-52,86.7-55.1,83.4-55.1,77.9z M-44.4,77.4c0,0.3,0.1,0.6,0.2,1c0.6,2.7,3.1,4.3,7.1,4.3h9l-8.3-7.5h11.5l7.2,6.5
			c1.3-0.7,2.2-1.8,2.5-3.2c0.1-0.3,0.1-0.6,0.1-1V55c0-0.3,0-0.6-0.1-0.9c-0.6-2.5-3.1-4-7-4h-15c-4.4,0-7.2,1.9-7.2,4.9V77.4z"/>
	</g>
	<g id="XMLID_10_" transform="translate(241.59, -4.64258)">
		<path id="XMLID_11_" class="st0" d="M48.1,161.8c-6.1-0.2-10.7,0.4-14.7,2.1c-1.1,0.5-2.9,0.5-3.1,1.9c0.6,0.7,0.7,1.6,1.2,2.4
			c0.9,1.5,2.6,3.6,4,4.7c1.6,1.2,3.2,2.4,4.8,3.5c3,1.8,6.3,2.9,9.2,4.7c1.7,1.1,3.4,2.4,5,3.6c0.8,0.6,1.4,1.5,2.4,1.9
			c0-0.1,0-0.1,0-0.2c-0.6-0.7-0.7-1.7-1.2-2.4c-0.7-0.7-1.5-1.5-2.2-2.2c-2.2-2.9-5-5.5-8-7.6c-2.4-1.7-7.7-4-8.6-6.7
			c-0.1-0.1-0.1-0.1-0.2-0.2c1.7-0.2,3.6-0.8,5.2-1.2c2.6-0.7,4.9-0.5,7.6-1.2c1.2-0.3,2.4-0.7,3.6-1c0-0.2,0-0.5,0-0.7
			c-1.4-1.4-2.3-3.2-3.8-4.5c-3.9-3.3-8.1-6.6-12.5-9.3c-2.4-1.5-5.4-2.5-8-3.8c-0.9-0.4-2.4-0.7-2.9-1.4c-1.3-1.7-2.1-3.9-3.1-5.9
			c-2.2-4.2-4.3-8.7-6.2-13.1c-1.3-3-2.2-6-3.8-8.6C4.9,103.3-3.5,95.5-16.6,87.9c-2.8-1.6-6.1-2.3-9.7-3.1
			c-1.9-0.1-3.8-0.2-5.7-0.3c-1.2-0.5-2.4-1.9-3.5-2.6c-4.3-2.7-15.5-8.7-18.7-0.9c-2,4.9,3,9.8,4.8,12.3C-48,95-46.4,97-45.5,99
			c0.6,1.3,0.7,2.6,1.2,4c1.3,3.4,2.4,7.1,4,10.2c0.8,1.6,1.7,3.3,2.8,4.7c0.6,0.9,1.7,1.3,1.9,2.6c-1.1,1.5-1.1,3.8-1.7,5.7
			c-2.7,8.5-1.7,19.1,2.2,25.4c1.2,1.9,4,6.1,8,4.5c3.4-1.4,2.7-5.7,3.6-9.5c0.2-0.9,0.1-1.5,0.5-2.1c0,0.1,0,0.1,0,0.2
			c1,2.1,2.1,4.2,3.1,6.2c2.3,3.7,6.4,7.6,9.9,10.2c1.8,1.4,3.2,3.7,5.5,4.5c0-0.1,0-0.1,0-0.2c-0.1,0-0.1,0-0.2,0
			c-0.5-0.7-1.2-1-1.7-1.6c-1.4-1.3-2.9-3-4-4.5c-3.2-4.3-5.9-9-8.5-13.8c-1.2-2.3-2.3-4.9-3.3-7.3c-0.4-0.9-0.4-2.3-1.2-2.8
			c-1.1,1.7-2.8,3.1-3.6,5.2c-1.4,3.3-1.6,7.3-2.1,11.4c-0.3,0.1-0.2,0-0.3,0.2c-2.4-0.6-3.3-3.1-4.2-5.2c-2.3-5.4-2.7-14-0.7-20.2
			c0.5-1.6,2.8-6.7,1.9-8.1c-0.5-1.5-1.9-2.3-2.8-3.5c-1-1.4-2.1-3.2-2.8-4.8c-1.9-4.2-2.7-8.9-4.7-13.1c-0.9-2-2.5-4.1-3.8-5.9
			c-1.4-2-3-3.5-4.2-5.9c-0.4-0.9-0.9-2.2-0.3-3.1c0.2-0.6,0.4-0.8,1-1c1-0.8,3.8,0.3,4.8,0.7c2.8,1.2,5.1,2.2,7.4,3.8
			c1.1,0.7,2.3,2.2,3.6,2.6c0.5,0,1,0,1.6,0c2.4,0.6,5.2,0.2,7.4,0.9c4,1.2,7.6,3.1,10.9,5.2c10,6.3,18.1,15.3,23.7,25.9
			c0.9,1.7,1.3,3.4,2.1,5.2c1.6,3.7,3.6,7.5,5.2,11.1c1.6,3.6,3.1,7.2,5.4,10.2c1.2,1.6,5.7,2.4,7.8,3.3c1.4,0.6,3.8,1.2,5.2,2.1
			c2.6,1.6,5.2,3.5,7.6,5.2C44.1,158.3,47.9,160.2,48.1,161.8z"/>
	</g>
	<g id="XMLID_8_" transform="translate(272.504, 24.8027)">
		<path id="XMLID_9_" class="st0" d="M-60.2,66.4c-1.3,0-2.2,0.1-3.1,0.3c0,0.1,0,0.1,0,0.2c0.1,0,0.1,0,0.2,0
			c0.6,1.2,1.7,2,2.4,3.1c0.6,1.2,1.2,2.4,1.7,3.6c0.1-0.1,0.1-0.1,0.2-0.2c1.1-0.8,1.6-2,1.6-3.8c-0.4-0.5-0.5-1-0.9-1.6
			C-58.6,67.4-59.5,67-60.2,66.4z"/>
	</g>
	<g id="XMLID_2_" transform="translate(371.609, 165.56)">
		<path id="XMLID_3_" class="st1" d="M-86,41.4c0,4.4,3.4,7.3,7.3,7.3s7.3-2.9,7.3-7.3c0-4.4-3.4-7.3-7.3-7.3S-86,37-86,41.4z
			 M-73,41.4c0,3.3-2.5,5.8-5.7,5.8c-3.2,0-5.7-2.5-5.7-5.8c0-3.3,2.5-5.8,5.7-5.8C-75.6,35.6-73,38.1-73,41.4z M-76.7,45.6h1.6
			l-2.4-3.7c1.3-0.1,2.3-0.8,2.3-2.3c0-1.7-1.1-2.4-3.1-2.4h-3.2v8.3h1.4V42h1.3L-76.7,45.6z M-80.2,40.8v-2.4h1.6
			c0.8,0,1.8,0.2,1.8,1.1c0,1.2-0.9,1.3-2,1.3H-80.2z"/>
	</g>
</g>
</svg>
