<?xml version="1.0" encoding="utf-8"?>
<!-- Generator: Adobe Illustrator 19.2.1, SVG Export Plug-In . SVG Version: 6.00 Build 0)  -->
<svg version="1.1" id="Layer_1" xmlns="http://www.w3.org/2000/svg" xmlns:xlink="http://www.w3.org/1999/xlink" x="0px" y="0px"
	 viewBox="0 0 300 300" style="enable-background:new 0 0 300 300;" xml:space="preserve">
<style type="text/css">
	.st0{fill:#29B99A;}
	.st1{fill-rule:evenodd;clip-rule:evenodd;fill:#15806B;}
	.st2{fill-rule:evenodd;clip-rule:evenodd;fill:#29B99A;}
	.st3{clip-path:url(#XMLID_4_);}
</style>
<g>
	<path class="st0" d="M154.8,231c-0.9,0-1.7-0.2-2.5-0.7l-8-4.7c-1.2-0.7-0.6-0.9-0.2-1c1.6-0.6,1.9-0.7,3.6-1.6
		c0.2-0.1,0.4-0.1,0.6,0l6.1,3.6c0.2,0.1,0.5,0.1,0.7,0l23.9-13.8c0.2-0.1,0.4-0.4,0.4-0.6v-27.6c0-0.3-0.1-0.5-0.4-0.7L155.2,170
		c-0.2-0.1-0.5-0.1-0.7,0l-23.9,13.8c-0.2,0.1-0.4,0.4-0.4,0.7v27.6c0,0.3,0.1,0.5,0.4,0.6l6.6,3.8c3.6,1.8,5.7-0.3,5.7-2.4v-27.3
		c0-0.4,0.3-0.7,0.7-0.7h3c0.4,0,0.7,0.3,0.7,0.7v27.3c0,4.8-2.6,7.5-7.1,7.5c-1.4,0-2.5,0-5.5-1.5l-6.3-3.6
		c-1.6-0.9-2.5-2.6-2.5-4.4v-27.6c0-1.8,1-3.5,2.5-4.4l23.9-13.8c1.5-0.9,3.5-0.9,5,0l23.9,13.8c1.6,0.9,2.5,2.6,2.5,4.4v27.6
		c0,1.8-1,3.5-2.5,4.4l-23.9,13.8C156.6,230.8,155.7,231,154.8,231z"/>
	<path class="st0" d="M162.2,212c-10.5,0-12.7-4.8-12.7-8.8c0-0.4,0.3-0.7,0.7-0.7h3.1c0.3,0,0.6,0.2,0.7,0.6
		c0.5,3.2,1.9,4.7,8.2,4.7c5,0,7.2-1.1,7.2-3.8c0-1.5-0.6-2.7-8.4-3.5c-6.6-0.6-10.6-2.1-10.6-7.3c0-4.8,4.1-7.7,10.9-7.7
		c7.7,0,11.5,2.7,11.9,8.4c0,0.2-0.1,0.4-0.2,0.5c-0.1,0.1-0.3,0.2-0.5,0.2h-3.1c-0.3,0-0.6-0.2-0.7-0.5c-0.7-3.3-2.6-4.4-7.5-4.4
		c-5.5,0-6.1,1.9-6.1,3.4c0,1.7,0.8,2.2,8.2,3.2c7.4,1,10.9,2.4,10.9,7.5C174.2,209,169.8,212,162.2,212z"/>
</g>
<g>
	<path class="st0" d="M196.8,183c0,2.5-2.1,4.6-4.6,4.6c-2.5,0-4.6-2.1-4.6-4.6c0-2.6,2.1-4.6,4.6-4.6
		C194.6,178.4,196.8,180.4,196.8,183z M188.3,183c0,2.1,1.7,3.9,3.9,3.9c2.1,0,3.9-1.8,3.9-3.9c0-2.1-1.8-3.9-3.9-3.9
		C190,179.1,188.3,180.8,188.3,183z M190.4,180.4h1.8c0.6,0,1.8,0,1.8,1.4c0,1-0.6,1.1-1,1.3c0.7,0,0.8,0.5,0.9,1.2
		c0,0.4,0.1,1.1,0.3,1.4h-1.1c0-0.2-0.2-1.6-0.2-1.6c-0.1-0.3-0.2-0.4-0.5-0.4h-0.9v2.1h-1V180.4z M191.4,182.7h0.8
		c0.7,0,0.8-0.5,0.8-0.7c0-0.7-0.5-0.7-0.8-0.7h-0.8V182.7z"/>
</g>
<path class="st1" d="M80.7,122.9c0-1.1-0.6-2.1-1.5-2.7l-25.4-14.6c-0.4-0.3-0.9-0.4-1.4-0.4c0,0-0.2,0-0.3,0c-0.5,0-1,0.2-1.4,0.4
	l-25.4,14.6c-0.9,0.5-1.5,1.6-1.5,2.7l0.1,39.3c0,0.5,0.3,1.1,0.8,1.3c0.5,0.3,1.1,0.3,1.5,0l15.1-8.6c1-0.6,1.5-1.6,1.5-2.7v-18.4
	c0-1.1,0.6-2.1,1.5-2.7l6.4-3.7c0.5-0.3,1-0.4,1.5-0.4c0.5,0,1.1,0.1,1.5,0.4l6.4,3.7c1,0.5,1.5,1.6,1.5,2.7v18.4
	c0,1.1,0.6,2.1,1.5,2.7l15.1,8.6c0.5,0.3,1.1,0.3,1.5,0c0.5-0.3,0.8-0.8,0.8-1.3L80.7,122.9z"/>
<path class="st1" d="M202.9,68.8c-0.5-0.3-1.1-0.3-1.5,0c-0.5,0.3-0.8,0.8-0.8,1.3v39c0,0.4-0.2,0.7-0.5,0.9c-0.3,0.2-0.7,0.2-1.1,0
	l-6.4-3.7c-0.9-0.5-2.1-0.5-3.1,0L164.1,121c-0.9,0.5-1.5,1.6-1.5,2.7V153c0,1.1,0.6,2.1,1.5,2.7l25.4,14.7c0.9,0.5,2.1,0.5,3.1,0
	l25.4-14.7c0.9-0.5,1.5-1.6,1.5-2.7V79.9c0-1.1-0.6-2.1-1.6-2.7L202.9,68.8z M200.5,143.4c0,0.3-0.1,0.5-0.4,0.7l-8.7,5
	c-0.2,0.1-0.5,0.1-0.8,0l-8.7-5c-0.2-0.1-0.4-0.4-0.4-0.7v-10.1c0-0.3,0.1-0.5,0.4-0.7l8.7-5c0.2-0.1,0.5-0.1,0.8,0l8.7,5
	c0.2,0.1,0.4,0.4,0.4,0.7V143.4z"/>
<path class="st1" d="M287.4,133c0.9-0.5,1.5-1.6,1.5-2.7v-7.1c0-1.1-0.6-2.1-1.5-2.7L262.2,106c-0.9-0.6-2.1-0.6-3.1,0l-25.4,14.7
	c-0.9,0.5-1.5,1.6-1.5,2.7v29.3c0,1.1,0.6,2.1,1.5,2.7l25.2,14.4c0.9,0.5,2.1,0.5,3,0l15.3-8.5c0.5-0.3,0.8-0.8,0.8-1.3
	c0-0.6-0.3-1.1-0.8-1.3l-25.5-14.7c-0.5-0.3-0.8-0.8-0.8-1.3v-9.2c0-0.5,0.3-1.1,0.8-1.3l8-4.6c0.5-0.3,1.1-0.3,1.5,0l8,4.6
	c0.5,0.3,0.8,0.8,0.8,1.3v7.2c0,0.5,0.3,1.1,0.8,1.3c0.5,0.3,1.1,0.3,1.5,0L287.4,133z"/>
<path class="st2" d="M260.3,131.7c0.2-0.1,0.4-0.1,0.6,0l4.9,2.8c0.2,0.1,0.3,0.3,0.3,0.5v5.6c0,0.2-0.1,0.4-0.3,0.5l-4.9,2.8
	c-0.2,0.1-0.4,0.1-0.6,0l-4.9-2.8c-0.2-0.1-0.3-0.3-0.3-0.5V135c0-0.2,0.1-0.4,0.3-0.5L260.3,131.7z"/>
<g>
	<defs>
		<path id="XMLID_143_" d="M123.2,106.1c-0.9-0.5-2.1-0.5-3,0l-25.3,14.6c-0.9,0.5-1.5,1.6-1.5,2.6v29.2c0,1.1,0.6,2.1,1.5,2.6
			l25.3,14.6c0.9,0.5,2.1,0.5,3.1,0l25.2-14.6c0.9-0.5,1.5-1.6,1.5-2.6v-29.2c0-1.1-0.6-2.1-1.5-2.6L123.2,106.1z"/>
	</defs>
	<use xlink:href="#XMLID_143_"  style="overflow:visible;fill-rule:evenodd;clip-rule:evenodd;fill:#29B99A;"/>
	<clipPath id="XMLID_4_">
		<use xlink:href="#XMLID_143_"  style="overflow:visible;"/>
	</clipPath>
	<g class="st3">
		<path class="st0" d="M120.1,106.1l-25.4,14.6c-0.9,0.5-1.7,1.6-1.7,2.6v29.2c0,0.7,0.4,1.4,0.9,1.9l28.5-48.6
			C121.6,105.6,120.8,105.7,120.1,106.1z"/>
		<path class="st0" d="M122.5,170c0.2-0.1,0.5-0.2,0.7-0.3l25.2-14.6c0.9-0.5,1.5-1.6,1.5-2.6v-29.2c0-0.8-0.3-1.6-0.9-2.1
			L122.5,170z"/>
		<path class="st0" d="M148.5,120.7l-25.3-14.6c-0.2-0.1-0.5-0.2-0.8-0.3l-28.4,48.6c0.2,0.3,0.5,0.5,0.9,0.7l25.4,14.6
			c0.7,0.4,1.6,0.5,2.4,0.3l26.7-48.8C149,121,148.7,120.8,148.5,120.7z"/>
	</g>
	<g class="st3">
		<path class="st0" d="M150,152.5v-29.2c0-1.1-0.6-2.1-1.6-2.6l-25.3-14.6c-0.3-0.2-0.6-0.3-0.9-0.3l27.7,47.4
			C150,153,150,152.7,150,152.5z"/>
		<path class="st0" d="M94.7,120.7c-0.9,0.5-1.7,1.6-1.7,2.6v29.2c0,1.1,0.8,2.1,1.7,2.6l25.4,14.6c0.6,0.3,1.3,0.5,2,0.4
			l-27.2-49.5L94.7,120.7z"/>
		<polygon class="st0" points="119.3,100.8 118.9,101 119.4,101 		"/>
		<path class="st0" d="M148.5,155.2c0.7-0.4,1.3-1.1,1.5-1.9l-27.8-47.4c-0.7-0.1-1.5,0-2.1,0.3l-25.2,14.5l27.2,49.5
			c0.4-0.1,0.8-0.2,1.1-0.4L148.5,155.2z"/>
		<polygon class="st0" points="150.8,154.7 150.7,154.4 150.7,154.8 		"/>
		<path class="st0" d="M148.5,155.2l-25.3,14.6c-0.3,0.2-0.7,0.3-1.1,0.4l0.7,0.9l28.2-16.3v-0.4l-0.9-1.2
			C149.9,154,149.2,154.7,148.5,155.2z"/>
		<path class="st0" d="M148.5,155.2l-25.3,14.6c-0.3,0.2-0.7,0.3-1.1,0.4l0.7,0.9l28.2-16.3v-0.4l-0.9-1.2
			C149.9,154,149.2,154.7,148.5,155.2z"/>
	</g>
</g>
</svg>
