<?xml version="1.0" encoding="utf-8"?>
<!-- Generator: Adobe Illustrator 20.1.0, SVG Export Plug-In . SVG Version: 6.00 Build 0)  -->
<svg version="1.1" id="Layer_9_copy" xmlns="http://www.w3.org/2000/svg" xmlns:xlink="http://www.w3.org/1999/xlink" x="0px"
	 y="0px" viewBox="0 0 512 512" style="enable-background:new 0 0 512 512;" xml:space="preserve">
<style type="text/css">
	.st0{fill-rule:evenodd;clip-rule:evenodd;fill:#1ABC9C;}
</style>
<g id="XMLID_1_">
	<path class="st0" d="M167.4,325.4l-14.4,6.3c-3.8,1.6-8-1.1-8-5.2v-126c0-2.3,2.3-3.8,4.4-3l19,7.4c4.6,1.8,7.6,6.3,7.6,11.2v96.1
		C176,317.9,172.6,323.1,167.4,325.4z M178.1,158.4l13.1,7.6c4.7,2.7,7.8,7.8,7.8,13.2v173.7c0,5.4-2.9,10.5-7.6,13.2l-10.6,6.1
		l-26,15c-2.5-0.3-5-1.1-7.3-2.4L101.3,358l-3.5-2c-4.7-2.7-7.8-7.8-7.8-13.2V169.1c0-5.4,3-10.5,7.8-13.2l10.3-5.9l27.8-16
		l112.5-64.9c4.7-2.7,10.4-2.7,15.2,0l26.8,15.6c1.1,0.6,1.7,1.8,1.7,3v269c0,2.5,2.6,4.2,4.9,3.2l32-13.9c1.3-0.6,2.1-1.8,2.1-3.2
		V114.1c0-2.7,2.9-4.4,5.2-3l78,44.9c4.7,2.7,7.8,7.8,7.8,13.2v66.7c0,2.1-1.9,3.8-4,3.4l-16-2.4c-1.7-0.3-3-1.7-3-3.4v-33.1
		c0-1.4-0.9-2.7-2.2-3.3l-24-9.4c-2.3-0.9-4.8,0.8-4.8,3.3v128.9c0,2.5,2.6,4.2,4.9,3.2l24-10.5c1.3-0.6,2.1-1.8,2.1-3.2v-37.5
		c0-1.7,1.3-3.2,2.9-3.4l16-2.6c2.1-0.3,4,1.3,4,3.5v73.6c0,5.4-3.1,10.5-7.8,13.2l-150.6,86.9c-4.7,2.7-10.5,2.7-15.2,0l-21.8-12.6
		c-3.8-2.2-6.1-6.2-6.1-10.5L219.1,142c0-2.7-2.9-4.3-5.2-3L196,149L178.1,158.4z"/>
</g>
</svg>
