<?xml version="1.0" encoding="utf-8"?>
<!-- Generator: Adobe Illustrator 20.0.0, SVG Export Plug-In . SVG Version: 6.00 Build 0)  -->
<svg version="1.1" id="Layer_1" xmlns="http://www.w3.org/2000/svg" xmlns:xlink="http://www.w3.org/1999/xlink" x="0px" y="0px"
	 viewBox="0 0 512 512" style="enable-background:new 0 0 512 512;" xml:space="preserve">
<style type="text/css">
	.st0{fill:#29B99A;}
	.st1{fill:#FFFFFF;}
</style>
<path class="st0" d="M378.2,91.8l-14.1,8.1l81.7,141.5c2.7,4.7,4.2,10,4.2,15.4s-1.3,10.7-4.2,15.4l-81.7,141.5
	c-5.5,9.5-15.7,15.4-26.7,15.4h-163c-11,0-21.2-5.8-26.7-15.4L66,272.1c-2.7-4.7-4.2-10-4.2-15.4s1.3-10.7,4.2-15.4l81.7-141.5
	c5.5-9.5,15.7-15.4,26.7-15.4h163.2c11,0,21.2,5.8,26.7,15.4L378.2,91.8l14.1-8.1c-11.3-19.6-32.2-31.5-54.7-31.5H174.4
	c-22.5,0-43.3,12-54.7,31.5L38,225.2c-5.7,9.7-8.4,20.7-8.4,31.5c0,10.8,2.7,21.8,8.4,31.5l81.7,141.5
	c11.3,19.6,32.2,31.5,54.7,31.5h163.2c22.5,0,43.3-12,54.7-31.5l81.7-141.5c5.7-9.7,8.4-20.7,8.4-31.5c0-10.8-2.7-21.8-8.4-31.5
	L392.1,83.7L378.2,91.8z"/>
<polygon class="st0" points="358.1,80 460.1,256.8 358.1,433.6 153.9,433.6 51.8,256.8 153.9,80 "/>
<path class="st0" d="M378.3,90.8l-14.1,8.1l81.7,141.5c2.7,4.7,4.2,10,4.2,15.4c0,5.3-1.3,10.7-4.2,15.4l-81.7,141.5
	c-5.5,9.5-15.7,15.4-26.7,15.4h-163c-11,0-21.2-5.8-26.7-15.4L66.1,271.2c-2.7-4.7-4.2-10-4.2-15.4c0-5.3,1.3-10.7,4.2-15.4
	l81.7-141.5c5.5-9.5,15.7-15.4,26.7-15.4h163.2c11,0,21.2,5.8,26.7,15.4L378.3,90.8l14.1-8.1c-11.3-19.6-32.2-31.5-54.7-31.5H174.5
	c-22.5,0-43.3,12-54.7,31.5L38.1,224.3c-5.7,9.7-8.4,20.7-8.4,31.5s2.7,21.8,8.4,31.5l81.7,141.5c11.3,19.6,32.2,31.5,54.7,31.5
	h163.2c22.5,0,43.3-12,54.7-31.5L474,287.4c5.7-9.7,8.4-20.7,8.4-31.5s-2.7-21.8-8.4-31.5L392.2,82.8L378.3,90.8z"/>
<path class="st1" d="M224.1,206.3c13.1,12,19.7,28.5,19.7,49.7s-6.3,38-19.1,50.3c-12.8,12.3-32.2,18.6-58.5,18.6h-34.3
	c-6,0-10.8-4.9-10.8-10.8V199.5c0-6,4.9-10.8,10.8-10.8h35.9C192.3,188.5,211,194.5,224.1,206.3z M220.7,256.6
	c0-31.2-18-46.7-53.7-46.7h-12.1c-6,0-10.8,4.9-10.8,10.8v71.7c0,6,4.9,10.8,10.8,10.8h14.7c16.5,0,29.1-3.9,38-11.8
	C216.4,283.5,220.7,272,220.7,256.6z"/>
<path class="st1" d="M335.7,304c7.9,0,14.7-1.3,20.5-4c3.4-1.6,7-3.7,10.7-6.6c4.4-3.4,10.5-2.9,14.4,1l0.2,0.2
	c4.4,4.5,4,11.8-0.8,15.9c-12.6,10.7-27.5,15.9-44.2,15.9c-20.5,0-37.7-6.6-51.3-19.9c-13.6-13.3-20.4-30.1-20.4-50.3
	c0-20.2,7-37.2,20.7-50.8C299.5,191.6,317,185,338,185c17.1,0,32.2,5.2,44.8,15.5c4.9,3.9,5.2,11.2,1,15.7l-0.3,0.3
	c-3.9,4.2-10.2,4.7-14.7,1.1c-3.7-2.9-7.3-5-10.8-6.5c-5.8-2.4-12.6-3.7-20.4-3.7c-13.7,0-25.4,4.5-34.8,13.4
	c-9.4,8.9-14.1,20.2-14.1,34.1c0,13.9,4.7,25.4,13.9,34.8C311.9,299.3,322.9,304,335.7,304z"/>
</svg>
