<?xml version="1.0" encoding="utf-8"?>
<!-- Generator: Adobe Illustrator 19.2.1, SVG Export Plug-In . SVG Version: 6.00 Build 0)  -->
<svg version="1.1" id="Layer_1" xmlns="http://www.w3.org/2000/svg" xmlns:xlink="http://www.w3.org/1999/xlink" x="0px" y="0px"
	 viewBox="0 0 300 300" style="enable-background:new 0 0 300 300;" xml:space="preserve">
<style type="text/css">
	.st0{fill:#26B99A;stroke:#FFFFFF;stroke-miterlimit:10;}
	.st1{fill:none;stroke:#FFFFFF;stroke-width:5;stroke-miterlimit:10;}
	.st2{fill:none;stroke:#FFFFFF;stroke-width:3;stroke-miterlimit:10;}
	.st3{fill:#26B99A;stroke:#FFFFFF;stroke-width:5;stroke-miterlimit:10;}
</style>
<path class="st0" d="M247.9,300H49.7c-28.1,0-50.9-22.8-50.9-50.9V50.9C-1.2,22.8,21.6,0,49.7,0h198.2c28.1,0,50.9,22.8,50.9,50.9
	v198.2C298.8,277.2,276,300,247.9,300z"/>
<line class="st1" x1="155.3" y1="185.3" x2="235.2" y2="40.3"/>
<line class="st1" x1="225.5" y1="97.5" x2="206.7" y2="86.7"/>
<line class="st1" x1="170.9" y1="193.2" x2="250.3" y2="49"/>
<line class="st1" x1="225.8" y1="52.8" x2="244.6" y2="63.5"/>
<line class="st2" x1="250" y1="67.5" x2="240.9" y2="61.7"/>
<line class="st1" x1="232.1" y1="41.3" x2="251.5" y2="51.8"/>
<line class="st2" x1="249.8" y1="65.6" x2="231.9" y2="96.8"/>
<line class="st2" x1="171.6" y1="192.3" x2="155" y2="203.8"/>
<line class="st2" x1="156.1" y1="184.3" x2="155" y2="203.8"/>
<line class="st2" x1="154.7" y1="183.5" x2="173.4" y2="193.6"/>
<path class="st3" d="M-44.4,271c0,0-50.3-45.7,42.7-35.3c93,10.3,89.3-7,89.3-7c-16-20,32.1-14,32.1-14s10.3-1.7-10.4-5
	c0,0-71.3-14.6,44.7-2.6"/>
</svg>
