<?xml version="1.0" encoding="utf-8"?>
<!-- Generator: Adobe Illustrator 19.0.0, SVG Export Plug-In . SVG Version: 6.00 Build 0)  -->
<svg version="1.1" id="Layer_1" xmlns="http://www.w3.org/2000/svg" xmlns:xlink="http://www.w3.org/1999/xlink" x="0px" y="0px"
	 viewBox="0 0 300 300" style="enable-background:new 0 0 300 300;" xml:space="preserve">
<style type="text/css">
	.st0{fill:#26B99A;}
</style>
<g>
	<path id="XMLID_19_" class="st0" d="M21.3,150c0,50.9,29.6,95,72.5,115.8L32.5,97.6C25.3,113.6,21.3,131.3,21.3,150z"/>
	<path id="XMLID_18_" class="st0" d="M236.9,143.5c0-15.9-5.7-26.9-10.6-35.5c-6.5-10.6-12.6-19.6-12.6-30.2
		c0-11.8,9-22.8,21.6-22.8c0.6,0,1.1,0.1,1.7,0.1c-22.9-21-53.4-33.8-86.9-33.8c-45,0-84.5,23.1-107.5,58c3,0.1,5.9,0.2,8.3,0.2
		c13.5,0,34.3-1.6,34.3-1.6c6.9-0.4,7.8,9.8,0.8,10.6c0,0-7,0.8-14.7,1.2L118,229.1l28.2-84.5l-20-54.9c-6.9-0.4-13.5-1.2-13.5-1.2
		c-6.9-0.4-6.1-11,0.8-10.6c0,0,21.3,1.6,33.9,1.6c13.5,0,34.3-1.6,34.3-1.6c6.9-0.4,7.8,9.8,0.8,10.6c0,0-7,0.8-14.7,1.2L214.2,228
		l12.8-42.9C232.6,167.3,236.9,154.5,236.9,143.5z"/>
	<path id="XMLID_17_" class="st0" d="M152.3,161.3l-38.6,112.2c11.5,3.4,23.7,5.2,36.3,5.2c15,0,29.4-2.6,42.7-7.3
		c-0.3-0.6-0.7-1.1-0.9-1.8L152.3,161.3z"/>
	<path id="XMLID_16_" class="st0" d="M262.9,88.3c0.6,4.1,0.9,8.5,0.9,13.2c0,13.1-2.4,27.7-9.8,46.1l-39.3,113.6
		c38.3-22.3,64-63.8,64-111.2C278.7,127.6,273,106.6,262.9,88.3z"/>
	<path class="st0" d="M150,0C67.3,0,0,67.3,0,150c0,82.7,67.3,150,150,150c82.7,0,150-67.3,150-150C300,67.3,232.7,0,150,0z
		 M150,293.1C71.1,293.1,6.9,228.9,6.9,150C6.9,71.1,71.1,6.9,150,6.9c78.9,0,143.1,64.2,143.1,143.1
		C293.1,228.9,228.9,293.1,150,293.1z"/>
</g>
</svg>
